<svg id="svg" version="1.1" xmlns="http://www.w3.org/2000/svg" xmlns:xlink="http://www.w3.org/1999/xlink" width="400" height="400" viewBox="0, 0, 400,400"><g id="svgg"><path id="path0" d="M165.356 306.300 C 167.316 320.653,165.289 345.081,161.589 351.695 C 161.375 352.077,161.200 352.574,161.200 352.799 C 161.200 354.109,157.623 361.026,154.700 365.369 C 151.292 370.432,142.166 378.263,139.408 378.491 C 138.394 378.575,138.396 378.580,139.895 380.012 C 140.838 380.912,141.510 381.290,141.694 381.024 C 141.871 380.768,141.990 380.867,141.994 381.273 C 141.997 381.643,142.363 382.061,142.806 382.202 C 143.249 382.343,143.522 382.603,143.412 382.781 C 143.302 382.959,144.108 383.547,145.202 384.089 C 146.297 384.631,147.074 385.192,146.930 385.337 C 146.785 385.482,146.952 385.600,147.300 385.600 C 147.648 385.600,147.993 385.735,148.067 385.900 C 148.140 386.065,149.055 386.633,150.100 387.163 C 151.145 387.692,152.000 388.277,152.000 388.463 C 152.000 388.648,152.270 388.800,152.600 388.800 C 152.930 388.800,153.200 388.980,153.200 389.200 C 153.200 389.420,153.335 389.562,153.500 389.515 C 153.665 389.468,154.217 389.661,154.726 389.943 C 155.235 390.225,156.045 390.532,156.525 390.624 C 157.005 390.716,157.458 390.974,157.532 391.196 C 157.606 391.418,158.012 391.600,158.433 391.600 C 158.855 391.600,159.200 391.780,159.200 392.000 C 159.200 392.220,159.560 392.400,160.000 392.400 C 160.440 392.400,160.800 392.580,160.800 392.800 C 160.800 393.020,161.340 393.200,162.000 393.200 C 162.660 393.200,163.201 393.335,163.203 393.500 C 163.207 393.906,165.186 394.800,166.080 394.800 C 166.476 394.800,166.800 394.980,166.800 395.200 C 166.800 395.420,167.340 395.600,168.000 395.600 C 168.660 395.600,169.200 395.780,169.200 396.000 C 169.200 396.220,169.740 396.400,170.400 396.400 C 171.060 396.400,171.600 396.541,171.600 396.713 C 171.600 396.885,172.085 397.066,172.678 397.115 C 173.270 397.164,173.855 397.347,173.978 397.522 C 174.100 397.696,175.010 397.891,176.000 397.954 C 176.990 398.017,177.860 398.233,177.933 398.434 C 178.007 398.635,178.592 398.800,179.233 398.800 C 179.875 398.800,180.400 398.946,180.400 399.124 C 180.400 399.642,183.656 399.745,200.000 399.745 C 216.344 399.745,219.600 399.642,219.600 399.124 C 219.600 398.946,220.241 398.800,221.024 398.800 C 221.871 398.800,222.347 398.638,222.200 398.400 C 221.995 398.068,224.448 397.755,225.700 397.953 C 225.865 397.979,226.000 397.820,226.000 397.600 C 226.000 397.380,226.439 397.200,226.976 397.200 C 227.513 397.200,228.064 397.020,228.200 396.800 C 228.336 396.580,228.797 396.400,229.224 396.400 C 229.651 396.400,230.000 396.220,230.000 396.000 C 230.000 395.780,230.720 395.600,231.600 395.600 C 232.480 395.600,233.200 395.420,233.200 395.200 C 233.200 394.980,233.536 394.800,233.947 394.800 C 234.855 394.800,238.947 393.155,239.133 392.715 C 239.207 392.542,239.612 392.400,240.033 392.400 C 240.455 392.400,240.800 392.220,240.800 392.000 C 240.800 391.780,241.160 391.600,241.600 391.600 C 242.040 391.600,242.400 391.420,242.400 391.200 C 242.400 390.980,242.738 390.800,243.151 390.800 C 243.564 390.800,244.126 390.530,244.400 390.200 C 244.674 389.870,245.326 389.600,245.849 389.600 C 246.372 389.600,246.800 389.420,246.800 389.200 C 246.800 388.980,247.070 388.800,247.400 388.800 C 247.730 388.800,248.000 388.620,248.000 388.400 C 248.000 388.180,248.320 388.000,248.712 388.000 C 249.103 388.000,249.683 387.640,250.000 387.200 C 250.317 386.760,250.864 386.400,251.216 386.400 C 251.568 386.400,252.608 385.756,253.528 384.969 C 254.448 384.182,255.200 383.685,255.200 383.865 C 255.200 384.045,255.657 383.699,256.216 383.096 C 256.775 382.493,257.386 382.000,257.574 382.000 C 257.762 382.000,258.474 381.478,259.158 380.840 C 260.477 379.607,260.795 378.400,259.800 378.400 C 259.470 378.400,259.200 378.220,259.200 378.000 C 259.200 377.780,259.010 377.600,258.778 377.600 C 256.794 377.600,248.148 369.612,244.923 364.800 C 242.949 361.854,238.800 353.757,238.800 352.851 C 238.800 352.597,238.635 352.077,238.434 351.695 C 234.725 344.661,232.728 320.692,234.650 306.300 L 234.904 304.400 200.000 304.400 L 165.096 304.400 165.356 306.300 " stroke="none" fill="#74b454" fill-rule="evenodd"></path><path id="path1" d="M86.534 145.027 C 86.402 145.372,86.498 145.858,86.747 146.107 C 87.084 146.444,87.200 146.284,87.200 145.480 C 87.200 144.277,86.901 144.073,86.534 145.027 M313.019 147.300 C 312.852 147.685,312.852 148.315,313.019 148.700 C 313.309 149.367,313.332 149.367,313.491 148.700 C 313.774 147.519,313.403 146.419,313.019 147.300 M86.400 148.400 C 86.400 149.147,86.507 149.253,86.880 148.880 C 87.253 148.507,87.253 148.293,86.880 147.920 C 86.507 147.547,86.400 147.653,86.400 148.400 M154.952 306.300 C 159.108 336.612,150.751 362.607,134.212 370.811 C 132.161 371.828,131.528 372.645,132.304 373.273 C 132.854 373.719,132.908 373.708,132.658 373.200 C 132.496 372.870,132.663 373.005,133.030 373.500 C 133.397 373.995,133.946 374.400,134.249 374.400 C 134.552 374.400,134.800 374.771,134.800 375.224 C 134.800 375.677,134.961 375.948,135.158 375.826 C 135.355 375.704,135.619 375.874,135.746 376.202 C 135.872 376.531,136.230 376.800,136.541 376.800 C 136.852 376.800,137.201 377.160,137.316 377.600 C 137.661 378.919,139.054 378.546,142.739 376.147 C 158.256 366.046,166.259 345.691,165.441 318.400 C 165.299 313.670,165.081 308.585,164.957 307.100 L 164.732 304.400 159.711 304.400 L 154.691 304.400 154.952 306.300 M235.038 307.300 C 232.124 340.802,239.881 364.834,257.261 376.147 C 261.081 378.633,261.558 378.768,262.400 377.600 C 262.717 377.160,263.307 376.800,263.712 376.800 C 264.116 376.800,264.350 376.643,264.232 376.452 C 263.923 375.952,265.372 374.400,266.147 374.400 C 266.506 374.400,266.755 374.183,266.700 373.918 C 266.645 373.653,266.780 373.425,267.000 373.412 C 268.867 373.299,267.776 371.286,265.451 370.555 C 264.012 370.103,260.316 367.414,257.945 365.094 C 246.833 354.225,241.818 331.344,245.057 306.300 L 245.303 304.400 240.297 304.400 L 235.290 304.400 235.038 307.300 " stroke="none" fill="#f6f9f5" fill-rule="evenodd"></path><path id="path2" d="M112.595 305.100 C 111.662 307.343,110.699 330.000,111.537 330.000 C 111.716 330.000,111.902 331.035,111.949 332.300 C 112.028 334.402,112.386 336.056,113.224 338.200 C 113.396 338.640,113.628 339.666,113.740 340.480 C 113.852 341.293,114.235 342.575,114.592 343.328 C 114.950 344.080,115.271 345.080,115.306 345.548 C 115.341 346.017,115.512 346.400,115.685 346.400 C 115.858 346.400,116.000 346.835,116.000 347.367 C 116.000 347.898,116.188 348.396,116.418 348.473 C 116.648 348.549,116.866 349.014,116.903 349.506 C 116.940 349.998,117.112 350.400,117.285 350.400 C 117.458 350.400,117.600 350.634,117.600 350.920 C 117.600 351.656,118.541 353.593,118.900 353.597 C 119.065 353.599,119.200 353.960,119.200 354.400 C 119.200 354.840,119.380 355.200,119.600 355.200 C 119.820 355.200,120.000 355.470,120.000 355.800 C 120.000 356.130,120.180 356.400,120.400 356.400 C 120.620 356.400,120.800 356.760,120.800 357.200 C 120.800 357.640,120.958 358.000,121.151 358.000 C 121.345 358.000,121.727 358.540,122.000 359.200 C 122.273 359.860,122.655 360.400,122.849 360.400 C 123.042 360.400,123.200 360.771,123.200 361.224 C 123.200 361.677,123.380 361.936,123.600 361.800 C 123.820 361.664,124.000 361.833,124.000 362.176 C 124.000 362.519,124.152 362.800,124.337 362.800 C 124.523 362.800,125.091 363.610,125.600 364.600 C 126.109 365.590,126.683 366.400,126.875 366.400 C 127.068 366.400,127.339 366.715,127.478 367.100 C 127.747 367.846,127.878 368.011,130.423 370.799 C 131.819 372.329,132.135 372.509,132.533 371.999 C 132.790 371.670,133.540 371.135,134.200 370.811 C 150.106 363.001,158.988 336.712,155.253 308.500 L 154.710 304.400 133.798 304.400 C 114.259 304.400,112.866 304.446,112.595 305.100 M165.013 307.000 C 166.132 325.441,165.395 336.433,162.305 347.400 C 158.676 360.280,151.714 370.491,142.669 376.202 C 140.947 377.290,139.722 378.241,139.948 378.316 C 141.519 378.840,151.569 370.019,154.700 365.369 C 157.623 361.026,161.200 354.109,161.200 352.799 C 161.200 352.574,161.375 352.077,161.589 351.695 C 162.647 349.803,164.596 340.986,165.633 333.400 C 166.331 328.294,166.205 311.525,165.438 307.400 L 164.843 304.200 165.013 307.000 M234.441 308.400 C 232.745 321.134,234.955 345.096,238.434 351.695 C 238.635 352.077,238.800 352.597,238.800 352.851 C 238.800 353.757,242.949 361.854,244.923 364.800 C 248.148 369.612,256.794 377.600,258.778 377.600 C 259.010 377.600,259.200 377.780,259.200 378.000 C 259.200 378.220,259.470 378.400,259.800 378.400 C 260.130 378.400,260.400 378.580,260.400 378.800 C 260.400 379.020,260.580 379.200,260.800 379.200 C 261.781 379.200,260.942 378.448,257.692 376.414 C 240.953 365.934,231.168 337.742,234.829 310.541 C 235.065 308.789,235.200 306.645,235.129 305.778 C 235.037 304.653,234.840 305.405,234.441 308.400 M245.057 306.300 C 241.818 331.344,246.833 354.225,257.945 365.094 C 260.317 367.415,264.012 370.103,265.452 370.556 C 265.921 370.703,266.730 371.192,267.249 371.642 L 268.193 372.461 270.084 370.330 C 271.124 369.159,271.980 368.041,271.987 367.846 C 271.994 367.651,272.405 367.097,272.900 366.614 C 274.324 365.225,275.200 364.033,275.200 363.484 C 275.200 363.205,275.560 362.717,276.000 362.400 C 276.440 362.083,276.800 361.503,276.800 361.112 C 276.800 360.720,276.958 360.400,277.151 360.400 C 277.345 360.400,277.727 359.860,278.000 359.200 C 278.273 358.540,278.655 358.000,278.849 358.000 C 279.042 358.000,279.200 357.680,279.200 357.288 C 279.200 356.897,279.560 356.317,280.000 356.000 C 280.440 355.683,280.800 355.114,280.800 354.735 C 280.800 354.357,280.980 353.936,281.200 353.800 C 281.420 353.664,281.600 353.193,281.600 352.753 C 281.600 352.313,281.780 352.064,282.000 352.200 C 282.227 352.340,282.400 352.004,282.400 351.424 C 282.400 350.861,282.580 350.400,282.800 350.400 C 283.020 350.400,283.200 350.051,283.200 349.624 C 283.200 349.197,283.380 348.736,283.600 348.600 C 283.820 348.464,284.000 347.924,284.000 347.400 C 284.000 346.876,284.180 346.336,284.400 346.200 C 284.620 346.064,284.800 345.423,284.800 344.776 C 284.800 344.129,284.936 343.600,285.103 343.600 C 285.465 343.600,286.400 340.738,286.400 339.630 C 286.400 339.199,286.560 338.748,286.756 338.627 C 286.951 338.506,287.201 337.821,287.311 337.104 C 287.421 336.387,287.617 335.359,287.748 334.820 C 287.878 334.281,288.016 332.879,288.055 331.705 C 288.093 330.531,288.283 329.473,288.476 329.353 C 288.922 329.078,288.856 312.052,288.406 311.211 C 288.222 310.868,288.023 309.690,287.964 308.593 C 287.905 307.497,287.691 306.105,287.489 305.500 L 287.122 304.400 266.212 304.400 L 245.303 304.400 245.057 306.300 M264.982 374.940 C 264.126 375.882,263.943 376.397,264.548 376.164 C 264.873 376.040,265.246 375.656,265.378 375.312 C 265.686 374.511,265.516 374.353,264.982 374.940 M262.500 377.398 C 261.757 378.242,261.894 378.473,262.800 377.907 C 263.240 377.632,263.600 377.271,263.600 377.104 C 263.600 376.627,263.049 376.775,262.500 377.398 " stroke="none" fill="#a4d38b" fill-rule="evenodd"></path><path id="path3" d="M190.400 0.429 C 190.400 0.676,189.862 0.735,189.034 0.580 C 187.861 0.360,187.573 0.470,186.990 1.358 C 186.618 1.928,186.152 2.294,185.956 2.173 C 185.760 2.052,185.600 2.154,185.600 2.400 C 185.600 2.646,185.431 2.743,185.225 2.615 C 185.018 2.488,184.650 2.702,184.405 3.092 C 184.027 3.695,184.001 3.658,184.226 2.842 C 184.458 2.003,184.416 1.953,183.887 2.442 C 183.556 2.749,183.366 3.135,183.466 3.300 C 183.565 3.465,183.266 3.600,182.800 3.600 C 182.229 3.600,182.051 3.763,182.253 4.100 C 182.441 4.412,182.288 4.385,181.846 4.026 C 181.239 3.533,181.090 3.531,180.791 4.015 C 180.573 4.367,180.622 4.700,180.921 4.901 C 181.202 5.090,180.905 5.177,180.200 5.111 C 179.230 5.021,178.976 5.167,178.876 5.871 C 178.808 6.350,178.462 6.980,178.107 7.271 C 177.541 7.735,177.490 7.689,177.693 6.900 C 177.964 5.848,177.772 5.771,176.943 6.600 C 176.576 6.967,176.521 7.200,176.800 7.200 C 177.079 7.200,177.024 7.433,176.657 7.800 C 176.327 8.130,175.744 8.400,175.362 8.400 C 174.980 8.400,174.786 8.519,174.931 8.664 C 175.076 8.809,174.833 9.182,174.391 9.491 C 173.948 9.801,173.689 10.220,173.814 10.423 C 173.939 10.625,173.780 10.691,173.461 10.568 C 172.765 10.301,172.427 10.771,172.311 12.164 C 172.264 12.734,172.000 13.200,171.725 13.200 C 171.420 13.200,171.323 12.927,171.476 12.500 C 171.614 12.115,171.596 11.918,171.435 12.062 C 171.274 12.207,171.054 12.882,170.947 13.563 C 170.705 15.096,169.812 16.878,169.461 16.527 C 169.317 16.384,169.200 16.547,169.200 16.891 C 169.200 17.234,168.911 17.625,168.558 17.761 C 168.205 17.896,168.016 18.265,168.138 18.583 C 168.271 18.930,168.049 19.258,167.580 19.406 C 167.040 19.578,166.817 19.985,166.854 20.727 C 166.903 21.678,166.929 21.697,167.083 20.894 C 167.179 20.396,167.418 20.087,167.614 20.208 C 168.085 20.500,167.208 22.400,166.602 22.400 C 166.344 22.400,166.133 22.662,166.133 22.982 C 166.133 23.303,166.271 23.480,166.439 23.376 C 166.607 23.272,166.858 23.370,166.996 23.593 C 167.134 23.817,166.967 24.000,166.624 24.000 C 166.281 24.000,166.000 24.191,166.000 24.424 C 166.000 24.657,166.180 24.736,166.400 24.600 C 166.620 24.464,166.800 24.543,166.800 24.776 C 166.800 25.009,166.609 25.200,166.376 25.200 C 166.143 25.200,166.063 25.378,166.197 25.595 C 166.336 25.820,166.181 25.891,165.839 25.760 C 165.053 25.458,165.281 30.134,166.118 31.472 C 166.280 31.732,166.202 32.075,165.945 32.234 C 165.652 32.415,165.584 32.350,165.762 32.062 C 165.919 31.808,165.857 31.600,165.624 31.600 C 165.391 31.600,165.200 32.061,165.200 32.624 C 165.200 33.196,165.374 33.540,165.595 33.403 C 165.822 33.263,165.889 33.423,165.754 33.777 C 165.623 34.117,165.355 34.296,165.158 34.174 C 164.961 34.052,164.797 34.188,164.794 34.476 C 164.789 34.900,164.723 34.898,164.449 34.466 C 163.984 33.732,163.665 33.802,162.770 34.835 C 162.261 35.422,161.998 35.532,161.994 35.161 C 161.990 34.825,161.870 34.761,161.694 35.000 C 161.532 35.220,161.175 35.418,160.900 35.440 C 159.497 35.552,159.404 35.615,160.000 36.044 C 160.506 36.408,160.491 36.440,159.900 36.250 C 159.030 35.970,157.928 36.360,158.226 36.842 C 158.348 37.039,158.267 37.200,158.047 37.200 C 157.827 37.200,157.536 37.020,157.400 36.800 C 157.264 36.580,156.938 36.414,156.676 36.432 C 156.333 36.454,156.339 36.519,156.700 36.665 C 157.752 37.089,157.136 37.555,155.756 37.379 C 154.594 37.230,154.357 37.310,154.542 37.792 C 154.668 38.121,154.643 38.364,154.486 38.332 C 154.143 38.261,152.882 38.706,151.858 39.259 C 151.353 39.531,151.198 39.527,151.371 39.246 C 151.512 39.019,151.138 39.087,150.542 39.396 C 149.945 39.706,149.326 39.878,149.166 39.779 C 149.006 39.680,148.976 39.987,149.100 40.462 C 149.306 41.248,149.211 41.302,148.043 41.069 C 147.132 40.886,146.842 40.945,147.043 41.269 C 147.231 41.574,147.059 41.656,146.525 41.517 C 146.005 41.381,145.555 41.580,145.238 42.087 C 144.971 42.516,144.505 42.772,144.203 42.657 C 143.834 42.515,143.702 42.692,143.800 43.200 C 143.900 43.722,143.769 43.886,143.373 43.734 C 143.056 43.613,142.800 43.748,142.800 44.037 C 142.800 44.444,142.693 44.453,142.320 44.080 C 141.727 43.487,141.200 43.460,141.200 44.024 C 141.200 44.257,141.425 44.312,141.700 44.147 C 142.044 43.940,142.030 44.056,141.655 44.519 C 141.087 45.219,140.195 45.055,140.642 44.332 C 140.792 44.089,140.539 44.111,140.026 44.386 C 139.547 44.643,139.060 45.099,138.944 45.401 C 138.826 45.710,138.458 45.844,138.101 45.707 C 137.714 45.558,137.570 45.628,137.730 45.887 C 137.879 46.127,137.691 46.286,137.296 46.255 C 136.854 46.220,136.640 46.443,136.710 46.865 C 136.792 47.367,136.596 47.481,135.910 47.330 C 135.181 47.170,135.119 47.216,135.600 47.559 C 136.118 47.929,136.105 47.989,135.500 47.994 C 135.115 47.997,134.845 48.202,134.900 48.450 C 134.955 48.697,134.750 48.991,134.444 49.102 C 134.122 49.219,133.999 49.126,134.151 48.880 C 134.295 48.646,134.226 48.339,133.997 48.198 C 133.768 48.056,133.630 48.089,133.690 48.270 C 133.751 48.452,133.620 48.669,133.400 48.754 C 132.870 48.958,131.780 50.520,131.903 50.900 C 132.004 51.211,131.184 51.339,129.800 51.228 C 129.265 51.185,129.160 51.274,129.484 51.496 C 129.836 51.737,129.743 51.968,129.142 52.343 C 128.462 52.768,128.374 52.766,128.642 52.332 C 128.821 52.042,128.075 52.446,126.984 53.230 C 125.893 54.013,124.978 54.867,124.950 55.127 C 124.744 57.075,124.761 57.041,124.400 56.200 C 124.211 55.760,124.044 55.636,124.028 55.924 C 124.013 56.212,123.816 56.333,123.590 56.194 C 123.365 56.055,123.230 56.179,123.290 56.470 C 123.351 56.762,123.175 56.955,122.900 56.900 C 122.625 56.845,122.400 57.160,122.400 57.600 C 122.400 58.040,122.209 58.400,121.976 58.400 C 121.743 58.400,121.645 58.250,121.759 58.067 C 121.872 57.883,121.703 57.733,121.382 57.733 C 121.062 57.733,120.889 57.822,120.997 57.931 C 121.106 58.039,120.836 58.380,120.397 58.687 C 119.959 58.994,119.600 59.505,119.600 59.823 C 119.600 60.140,119.375 60.355,119.100 60.300 C 118.825 60.245,118.643 60.419,118.695 60.686 C 118.748 60.953,118.547 61.078,118.250 60.964 C 117.892 60.827,117.625 61.177,117.461 61.997 C 117.283 62.887,117.015 63.204,116.515 63.119 C 116.132 63.054,115.805 63.180,115.789 63.400 C 115.717 64.409,115.106 65.589,114.765 65.378 C 114.557 65.250,114.489 64.979,114.614 64.777 C 114.739 64.575,114.547 64.522,114.187 64.660 C 113.664 64.861,113.639 64.979,114.066 65.250 C 114.441 65.487,114.301 65.591,113.600 65.600 C 112.844 65.609,112.740 65.701,113.174 65.976 C 113.816 66.382,113.130 67.593,112.251 67.607 C 111.607 67.617,109.951 69.452,109.828 70.292 C 109.771 70.681,109.531 71.000,109.295 71.000 C 108.493 71.000,108.285 71.579,108.843 72.255 C 109.324 72.838,109.318 72.901,108.800 72.719 C 107.830 72.378,106.662 73.151,107.188 73.786 C 107.527 74.194,107.464 74.302,106.914 74.258 C 106.464 74.221,106.179 74.495,106.143 75.000 C 106.111 75.440,106.066 76.019,106.043 76.287 C 106.019 76.556,105.748 76.678,105.440 76.560 C 105.133 76.442,104.745 76.566,104.579 76.835 C 104.368 77.175,104.447 77.223,104.838 76.990 C 105.147 76.806,104.815 77.211,104.100 77.888 C 103.232 78.712,102.798 79.499,102.794 80.260 C 102.790 81.037,102.680 81.230,102.450 80.866 C 102.037 80.216,101.423 81.369,101.568 82.524 C 101.681 83.429,100.850 84.478,100.293 84.134 C 100.051 83.984,99.996 84.070,100.162 84.338 C 100.319 84.592,100.246 84.800,100.000 84.800 C 99.754 84.800,99.665 84.981,99.802 85.203 C 99.939 85.425,99.768 85.889,99.422 86.235 C 99.076 86.581,98.898 87.034,99.026 87.242 C 99.154 87.450,99.021 87.570,98.730 87.510 C 98.406 87.443,98.251 87.694,98.330 88.154 C 98.422 88.689,98.284 88.841,97.857 88.677 C 97.442 88.518,97.271 88.680,97.310 89.195 C 97.341 89.607,97.496 89.864,97.655 89.766 C 97.815 89.667,98.046 89.751,98.170 89.952 C 98.395 90.315,97.286 90.990,96.681 90.857 C 96.506 90.819,96.416 91.105,96.481 91.494 C 96.548 91.891,96.381 92.156,96.100 92.100 C 95.825 92.045,95.600 92.180,95.600 92.400 C 95.600 92.620,95.892 92.800,96.249 92.800 C 96.838 92.800,96.841 92.883,96.281 93.700 C 95.942 94.195,95.456 94.551,95.202 94.490 C 94.948 94.430,94.855 94.565,94.994 94.790 C 95.133 95.016,95.037 95.200,94.781 95.200 C 94.524 95.200,94.417 95.468,94.543 95.795 C 94.668 96.123,94.580 96.348,94.347 96.295 C 94.114 96.243,93.750 96.650,93.539 97.200 C 93.231 98.002,93.254 98.101,93.657 97.700 C 93.934 97.425,94.298 97.200,94.467 97.200 C 94.872 97.200,94.386 98.457,93.722 99.129 C 93.401 99.453,93.299 100.056,93.458 100.689 C 93.642 101.422,93.582 101.636,93.248 101.430 C 92.806 101.157,91.701 103.368,91.913 104.100 C 91.961 104.265,91.799 104.400,91.553 104.400 C 91.296 104.400,91.186 104.812,91.293 105.374 C 91.395 105.910,91.309 106.585,91.102 106.874 C 90.827 107.257,90.788 107.204,90.958 106.679 C 91.094 106.257,91.027 106.060,90.795 106.203 C 90.239 106.547,90.303 107.494,90.900 107.736 C 91.276 107.889,91.252 108.044,90.800 108.363 C 90.267 108.741,90.267 108.791,90.800 108.819 C 91.148 108.837,91.022 109.003,90.500 109.212 C 89.969 109.426,89.600 109.917,89.600 110.411 C 89.600 110.871,89.755 111.151,89.945 111.034 C 90.135 110.917,90.270 111.221,90.245 111.710 C 90.219 112.215,89.940 112.600,89.600 112.600 C 89.270 112.600,88.940 113.022,88.867 113.537 C 88.756 114.327,88.866 114.433,89.567 114.210 C 90.609 113.880,90.613 114.245,89.585 115.932 C 89.138 116.665,89.004 117.129,89.286 116.963 C 89.569 116.798,89.456 117.055,89.034 117.535 C 88.370 118.292,88.338 118.536,88.788 119.378 C 89.225 120.193,89.204 120.608,88.657 121.974 C 88.299 122.868,88.117 123.600,88.252 123.600 C 88.387 123.600,88.293 123.847,88.042 124.149 C 87.492 124.813,87.896 126.100,88.542 125.739 C 88.819 125.584,88.802 125.696,88.500 126.021 C 88.225 126.318,88.000 127.075,88.000 127.704 C 88.000 128.505,88.149 128.761,88.500 128.559 C 88.775 128.401,88.587 128.725,88.082 129.281 C 87.035 130.431,86.730 140.785,87.742 140.812 C 87.994 140.819,87.885 141.008,87.500 141.232 C 86.646 141.730,86.565 142.465,87.400 142.145 C 88.097 141.877,88.158 142.453,87.629 144.297 C 87.402 145.090,87.402 145.678,87.629 145.818 C 88.238 146.194,88.049 146.794,87.400 146.545 C 86.988 146.387,86.800 146.569,86.800 147.124 C 86.800 147.569,87.012 148.004,87.272 148.091 C 87.531 148.177,87.782 148.809,87.830 149.495 C 87.922 150.830,87.013 150.964,86.669 149.666 C 86.572 149.300,86.472 149.836,86.446 150.857 C 86.414 152.171,86.576 152.782,87.000 152.945 C 87.330 153.071,87.597 153.406,87.594 153.687 C 87.590 154.046,87.471 154.020,87.200 153.600 C 86.834 153.034,86.772 153.075,86.650 153.967 C 86.623 154.168,86.465 154.468,86.300 154.633 C 85.834 155.099,85.947 155.680,86.443 155.374 C 86.730 155.196,86.807 155.363,86.662 155.850 C 86.020 158.002,85.905 158.906,86.304 158.659 C 86.567 158.497,86.647 158.699,86.517 159.195 C 86.403 159.633,86.150 159.892,85.955 159.772 C 85.760 159.651,85.600 160.024,85.600 160.600 C 85.600 161.196,85.772 161.541,86.000 161.400 C 86.220 161.264,86.400 161.343,86.400 161.576 C 86.400 161.809,86.085 162.014,85.700 162.032 C 85.282 162.050,85.201 162.144,85.500 162.265 C 86.118 162.514,86.165 163.600,85.557 163.600 C 85.314 163.600,85.222 163.879,85.353 164.221 C 85.489 164.577,85.422 164.737,85.195 164.597 C 84.965 164.455,84.803 164.905,84.806 165.676 C 84.811 166.678,84.907 166.854,85.200 166.400 C 85.531 165.887,85.589 165.902,85.594 166.500 C 85.597 166.885,85.401 167.200,85.157 167.200 C 84.914 167.200,84.810 167.448,84.926 167.751 C 85.042 168.054,84.945 168.495,84.709 168.731 C 84.405 169.035,84.484 169.469,84.983 170.230 C 85.503 171.024,85.561 171.377,85.208 171.595 C 84.946 171.757,84.747 172.004,84.766 172.145 C 84.871 172.927,84.720 173.280,83.953 174.047 C 83.269 174.731,83.211 174.961,83.653 175.241 C 84.103 175.526,84.093 175.590,83.600 175.600 C 83.118 175.610,83.105 175.679,83.534 175.950 C 83.963 176.223,83.944 176.336,83.434 176.532 C 83.085 176.665,82.800 176.971,82.800 177.211 C 82.800 177.451,82.980 177.536,83.200 177.400 C 83.420 177.264,83.600 177.534,83.600 178.000 C 83.600 178.466,83.432 178.744,83.228 178.617 C 82.576 178.214,82.384 179.088,83.009 179.608 C 83.455 179.978,83.497 180.242,83.170 180.636 C 82.929 180.927,82.864 181.381,83.027 181.644 C 83.192 181.911,83.155 182.019,82.943 181.888 C 82.034 181.327,81.405 182.322,82.149 183.144 C 82.806 183.870,81.981 185.141,81.148 184.686 C 81.061 184.639,81.252 184.825,81.572 185.100 C 82.078 185.536,82.075 185.600,81.548 185.600 C 81.092 185.600,80.965 186.002,81.032 187.228 C 81.093 188.348,80.938 188.925,80.537 189.079 C 80.216 189.203,80.045 189.541,80.157 189.831 C 80.291 190.182,80.131 190.288,79.680 190.147 C 79.105 189.968,79.116 190.030,79.750 190.548 C 80.234 190.944,80.404 191.413,80.229 191.870 C 80.022 192.409,79.881 192.455,79.638 192.062 C 79.452 191.761,79.357 192.162,79.410 193.028 C 79.510 194.684,78.414 197.055,77.909 196.274 C 77.740 196.013,77.672 196.565,77.758 197.500 C 77.843 198.435,77.753 199.200,77.557 199.200 C 76.724 199.200,76.576 199.295,76.114 200.126 C 75.520 201.195,75.456 202.136,76.000 201.800 C 76.220 201.664,76.400 201.743,76.400 201.976 C 76.400 202.209,76.220 202.400,76.000 202.400 C 75.780 202.400,75.600 202.771,75.600 203.224 C 75.600 203.677,75.429 203.942,75.220 203.812 C 75.011 203.683,74.651 203.931,74.420 204.363 C 73.893 205.347,73.877 206.009,74.400 205.200 C 74.745 204.667,74.787 204.667,74.781 205.200 C 74.773 205.985,73.796 207.262,73.460 206.927 C 73.317 206.784,73.200 206.877,73.200 207.133 C 73.200 207.390,73.387 207.600,73.616 207.600 C 73.856 207.600,73.813 207.836,73.516 208.158 C 73.232 208.465,72.865 208.634,72.700 208.534 C 72.535 208.435,72.400 208.704,72.400 209.134 C 72.400 209.563,72.144 210.013,71.831 210.133 C 71.494 210.262,71.346 210.672,71.468 211.137 C 71.613 211.692,71.424 212.002,70.826 212.192 C 70.360 212.340,70.005 212.672,70.037 212.930 C 70.178 214.076,69.967 214.827,69.573 214.583 C 69.337 214.437,69.202 214.562,69.271 214.862 C 69.340 215.160,68.996 215.804,68.507 216.293 C 68.018 216.782,67.714 217.433,67.832 217.739 C 67.950 218.046,67.756 218.408,67.402 218.544 C 66.965 218.711,66.848 218.632,67.036 218.295 C 67.188 218.023,66.972 218.137,66.556 218.548 C 65.996 219.102,65.934 219.345,66.317 219.487 C 66.712 219.633,66.724 219.809,66.371 220.234 C 66.117 220.541,65.722 220.675,65.493 220.534 C 65.252 220.385,65.196 220.470,65.360 220.735 C 65.730 221.334,65.163 222.200,64.400 222.200 C 64.070 222.200,63.778 222.425,63.750 222.700 C 63.634 223.864,63.585 223.998,63.300 223.953 C 62.157 223.772,61.841 224.057,62.571 224.609 C 63.366 225.211,63.217 225.692,62.187 225.843 C 61.839 225.894,61.706 225.738,61.863 225.465 C 62.009 225.209,61.650 225.436,61.065 225.970 C 60.479 226.503,60.000 227.121,60.000 227.344 C 60.000 227.566,59.595 228.209,59.100 228.771 L 58.200 229.794 59.100 229.035 C 59.990 228.285,60.000 228.286,60.000 229.138 C 60.000 229.612,59.865 229.979,59.700 229.953 C 58.867 229.821,58.400 230.062,58.400 230.624 C 58.400 230.967,58.217 231.134,57.993 230.996 C 57.770 230.858,57.709 230.532,57.859 230.272 C 58.008 230.013,57.651 230.304,57.065 230.921 C 56.479 231.537,56.000 232.212,56.000 232.421 C 56.000 232.629,55.854 232.800,55.675 232.800 C 55.497 232.800,54.951 233.340,54.463 234.000 C 53.975 234.660,53.720 235.200,53.895 235.200 C 54.071 235.200,54.522 234.705,54.897 234.100 C 55.426 233.247,55.581 233.164,55.589 233.729 C 55.601 234.505,54.712 235.600,54.071 235.600 C 53.859 235.600,53.578 235.881,53.446 236.225 C 53.314 236.569,53.048 236.754,52.856 236.635 C 52.421 236.366,51.102 237.769,51.456 238.123 C 51.598 238.265,51.420 238.494,51.060 238.632 C 50.699 238.771,50.503 239.043,50.623 239.237 C 50.743 239.432,50.562 239.484,50.221 239.353 C 49.879 239.222,49.600 239.314,49.600 239.557 C 49.600 239.801,49.763 240.000,49.963 240.000 C 50.162 240.000,50.231 240.360,50.116 240.800 C 50.001 241.240,49.647 241.600,49.330 241.600 C 48.991 241.600,48.872 241.407,49.042 241.132 C 49.201 240.874,48.858 241.009,48.278 241.432 C 47.699 241.854,47.219 242.354,47.213 242.541 C 47.206 242.729,46.390 243.783,45.400 244.884 C 44.410 245.986,43.600 247.127,43.600 247.421 C 43.600 247.714,43.285 248.190,42.900 248.477 C 42.515 248.765,42.182 249.225,42.160 249.500 C 42.041 250.985,41.956 251.158,41.440 250.960 C 41.133 250.842,40.762 250.938,40.617 251.173 C 40.472 251.408,40.543 251.600,40.776 251.600 C 41.009 251.600,41.200 251.870,41.200 252.200 C 41.200 252.741,40.725 252.978,39.900 252.847 C 39.613 252.802,39.416 254.157,39.586 255.000 C 39.630 255.220,39.542 255.275,39.389 255.122 C 38.963 254.696,37.232 256.964,37.299 257.859 C 37.381 258.945,36.388 261.240,35.954 260.971 C 35.759 260.851,35.600 261.108,35.600 261.543 C 35.600 261.978,35.375 262.409,35.100 262.502 C 34.704 262.635,34.708 262.801,35.119 263.299 C 35.493 263.752,35.513 264.006,35.192 264.205 C 34.946 264.357,34.836 264.718,34.947 265.007 C 35.059 265.297,34.891 265.633,34.575 265.754 C 34.259 265.876,34.003 266.206,34.006 266.487 C 34.010 266.846,34.129 266.820,34.400 266.400 C 34.728 265.892,34.789 265.911,34.794 266.527 C 34.798 267.073,34.601 267.191,34.000 267.000 C 33.432 266.820,33.200 266.928,33.200 267.373 C 33.200 267.718,33.476 268.000,33.814 268.000 C 34.451 268.000,34.481 269.320,33.866 270.300 C 33.694 270.575,33.652 270.961,33.774 271.158 C 33.896 271.355,33.729 271.618,33.404 271.743 C 33.056 271.877,32.915 272.233,33.060 272.612 C 33.195 272.965,33.072 273.692,32.786 274.226 C 32.500 274.761,32.386 275.319,32.533 275.466 C 32.680 275.613,32.801 275.388,32.802 274.967 C 32.804 274.379,32.944 274.467,33.402 275.346 C 34.159 276.797,34.158 277.236,33.400 276.945 C 33.000 276.791,32.798 276.962,32.794 277.457 C 32.789 278.071,32.723 278.098,32.415 277.611 C 31.817 276.665,31.433 278.141,32.002 279.203 C 32.256 279.679,32.367 280.167,32.246 280.287 C 32.126 280.407,32.208 280.842,32.428 281.253 C 32.699 281.759,32.694 282.000,32.414 282.000 C 32.186 282.000,32.014 282.315,32.032 282.700 C 32.049 283.085,32.151 283.185,32.257 282.922 C 32.364 282.660,32.710 282.544,33.026 282.665 C 33.782 282.955,33.764 283.600,33.000 283.600 C 32.670 283.600,32.400 283.870,32.400 284.200 C 32.400 284.530,32.602 284.800,32.849 284.800 C 33.177 284.800,33.175 284.949,32.841 285.351 C 32.481 285.784,32.556 285.948,33.192 286.114 C 34.012 286.328,34.374 288.000,33.600 288.000 C 33.380 288.000,33.200 288.270,33.200 288.600 C 33.200 288.930,33.474 289.200,33.810 289.200 C 34.360 289.200,35.278 290.805,35.132 291.514 C 35.013 292.093,35.695 293.188,36.042 292.974 C 36.239 292.852,36.403 292.988,36.406 293.276 C 36.411 293.657,36.518 293.636,36.800 293.200 C 37.131 292.687,37.189 292.702,37.194 293.300 C 37.197 293.685,37.018 294.000,36.797 294.000 C 36.558 294.000,36.597 294.327,36.893 294.801 C 37.169 295.242,37.575 295.541,37.797 295.466 C 38.019 295.391,38.438 295.616,38.730 295.965 C 39.045 296.343,39.141 296.372,38.968 296.038 C 38.771 295.660,38.833 295.573,39.158 295.774 C 39.529 296.003,39.520 296.218,39.119 296.712 C 38.759 297.157,38.749 297.264,39.085 297.062 C 39.360 296.898,39.925 297.125,40.385 297.585 C 40.833 298.033,41.328 298.387,41.484 298.370 C 41.641 298.354,41.898 298.669,42.056 299.070 C 42.314 299.724,42.347 299.729,42.372 299.113 C 42.411 298.155,43.600 298.669,43.600 299.643 C 43.600 300.578,43.959 300.610,44.601 299.731 C 45.046 299.123,45.153 299.156,45.764 300.088 C 46.224 300.792,46.682 301.051,47.213 300.912 C 47.698 300.786,48.083 300.952,48.238 301.355 C 48.374 301.710,48.837 302.000,49.266 302.000 C 49.785 302.000,49.946 301.832,49.747 301.500 C 49.543 301.160,49.663 301.176,50.123 301.549 C 50.495 301.851,50.806 301.941,50.813 301.749 C 50.820 301.557,51.072 301.726,51.374 302.124 C 51.737 302.603,52.015 302.699,52.195 302.408 C 52.345 302.166,52.821 302.080,53.253 302.217 C 53.685 302.354,54.279 302.267,54.572 302.023 C 54.975 301.689,55.164 301.730,55.341 302.190 C 55.550 302.735,70.917 302.800,200.000 302.800 C 329.083 302.800,344.450 302.735,344.659 302.190 C 344.839 301.722,345.021 301.686,345.442 302.035 C 345.743 302.285,346.264 302.384,346.598 302.256 C 346.933 302.128,347.666 302.197,348.226 302.410 C 348.981 302.697,349.171 302.676,348.957 302.331 C 348.767 302.023,348.883 301.946,349.295 302.104 C 349.699 302.259,349.990 302.080,350.116 301.598 C 350.319 300.824,352.000 300.888,352.000 301.670 C 352.000 301.878,352.183 301.934,352.407 301.796 C 352.630 301.658,352.726 301.404,352.620 301.233 C 352.514 301.061,353.001 300.905,353.701 300.885 C 354.419 300.864,355.199 300.543,355.488 300.148 C 355.879 299.612,356.003 299.583,356.013 300.024 C 356.022 300.416,356.267 300.312,356.779 299.698 C 357.298 299.076,357.595 298.952,357.734 299.298 C 357.883 299.667,357.945 299.672,357.968 299.318 C 358.023 298.487,359.806 296.990,360.567 297.137 C 361.016 297.223,361.191 297.109,361.024 296.838 C 360.875 296.597,361.011 296.400,361.327 296.400 C 361.643 296.400,362.126 296.130,362.400 295.800 C 363.001 295.076,362.378 294.995,361.628 295.700 C 361.336 295.975,361.409 295.707,361.792 295.103 C 362.174 294.500,362.648 294.106,362.844 294.227 C 363.040 294.348,363.200 293.989,363.200 293.428 C 363.200 292.610,363.377 292.428,364.100 292.505 C 364.999 292.600,365.024 292.546,365.157 290.276 C 365.181 289.878,365.380 289.664,365.600 289.800 C 366.013 290.055,366.150 289.546,366.014 288.256 C 365.970 287.847,366.085 287.605,366.267 287.718 C 366.564 287.901,366.714 287.300,366.911 285.129 C 366.944 284.761,367.139 284.562,367.344 284.689 C 367.554 284.819,367.629 284.464,367.516 283.872 C 367.406 283.296,367.470 282.919,367.658 283.036 C 367.846 283.152,368.000 283.071,368.000 282.856 C 368.000 282.641,368.110 282.179,368.245 281.828 C 368.431 281.343,368.318 281.256,367.775 281.465 C 367.212 281.681,367.118 281.591,367.331 281.037 C 367.479 280.651,367.603 280.214,367.606 280.067 C 367.609 279.920,367.787 280.070,368.000 280.400 C 368.334 280.916,368.389 280.905,368.394 280.320 C 368.397 279.946,368.085 279.451,367.700 279.220 C 367.033 278.820,367.033 278.780,367.700 278.380 C 368.473 277.916,368.655 276.800,367.957 276.800 C 367.711 276.800,367.626 277.091,367.766 277.457 C 367.978 278.008,367.920 278.031,367.404 277.603 C 367.066 277.323,366.827 276.892,366.873 276.647 C 366.919 276.401,366.814 275.777,366.639 275.260 C 366.445 274.686,366.492 274.148,366.760 273.880 C 367.080 273.560,367.200 273.589,367.200 273.987 C 367.200 274.287,367.316 274.418,367.457 274.276 C 367.598 274.135,367.496 273.756,367.229 273.435 C 366.868 273.000,366.857 272.641,367.186 272.026 C 367.505 271.430,367.506 271.200,367.190 271.200 C 366.950 271.200,366.864 271.020,367.000 270.800 C 367.136 270.580,367.072 270.400,366.857 270.400 C 366.642 270.400,366.376 270.625,366.265 270.900 C 366.139 271.212,366.051 271.149,366.032 270.733 C 366.014 270.367,366.225 269.976,366.500 269.865 C 366.900 269.704,366.900 269.657,366.500 269.632 C 365.911 269.594,365.813 268.000,366.400 268.000 C 366.620 268.000,366.800 267.730,366.800 267.400 C 366.800 267.046,366.431 266.797,365.900 266.794 C 365.243 266.789,365.146 266.695,365.543 266.444 C 365.936 266.195,365.959 266.022,365.626 265.816 C 365.374 265.660,365.277 265.188,365.411 264.766 C 365.596 264.183,365.460 264.000,364.840 264.000 C 363.987 264.000,364.065 262.975,364.971 262.262 C 365.235 262.054,365.151 262.003,364.751 262.130 C 363.970 262.378,363.067 260.898,363.265 259.694 C 363.352 259.163,362.976 258.503,362.217 257.849 C 361.071 256.864,361.065 256.839,362.017 257.078 C 362.995 257.324,362.996 257.321,362.238 256.463 C 361.819 255.988,361.234 255.600,360.938 255.600 C 360.642 255.600,360.400 255.330,360.400 255.000 C 360.400 254.670,360.591 254.400,360.824 254.400 C 361.057 254.400,361.134 254.217,360.996 253.993 C 360.858 253.770,360.573 253.693,360.362 253.823 C 360.152 253.953,360.013 253.911,360.054 253.730 C 360.094 253.548,359.991 253.040,359.825 252.600 C 359.659 252.160,359.456 251.575,359.374 251.300 C 359.292 251.025,359.029 250.800,358.789 250.800 C 358.549 250.800,358.467 251.025,358.606 251.300 C 358.745 251.575,358.567 251.440,358.211 251.000 C 357.854 250.560,357.643 249.885,357.743 249.500 C 357.843 249.115,357.789 248.800,357.624 248.800 C 357.458 248.800,357.114 248.395,356.859 247.900 C 356.405 247.018,356.401 247.020,356.656 248.000 C 356.904 248.948,356.862 248.935,355.859 247.742 C 355.276 247.050,354.800 246.341,354.800 246.166 C 354.800 245.991,355.064 246.196,355.387 246.624 C 355.710 247.051,355.980 247.215,355.987 246.989 C 356.011 246.238,354.733 244.755,353.736 244.376 C 353.195 244.170,352.856 243.834,352.982 243.628 C 353.109 243.423,353.027 243.140,352.800 243.000 C 352.573 242.860,352.489 242.579,352.614 242.377 C 352.739 242.175,352.555 242.119,352.204 242.254 C 351.791 242.412,351.608 242.305,351.684 241.949 C 351.751 241.630,351.500 241.425,351.082 241.459 C 350.565 241.501,350.397 241.278,350.482 240.663 C 350.575 239.990,350.388 239.806,349.600 239.795 C 348.855 239.785,348.632 239.595,348.727 239.051 C 348.803 238.613,348.682 238.426,348.427 238.583 C 348.192 238.729,348.000 238.557,348.000 238.200 C 348.000 237.844,348.180 237.664,348.400 237.800 C 349.472 238.462,347.977 236.578,344.700 233.135 C 344.315 232.731,344.000 232.212,344.000 231.982 C 344.000 231.753,343.742 231.618,343.426 231.682 C 343.111 231.747,342.830 231.620,342.802 231.400 C 342.775 231.180,342.406 230.872,341.983 230.715 C 341.490 230.533,341.301 230.203,341.456 229.799 C 341.612 229.391,341.503 229.209,341.149 229.284 C 340.805 229.357,340.648 229.119,340.730 228.646 C 340.826 228.090,340.689 227.957,340.209 228.141 C 339.830 228.287,339.660 228.226,339.803 227.995 C 340.027 227.633,339.477 227.422,338.670 227.563 C 338.489 227.594,338.450 227.443,338.583 227.227 C 338.716 227.012,339.135 226.932,339.513 227.050 C 340.128 227.243,340.135 227.210,339.575 226.733 C 339.232 226.440,338.832 225.885,338.688 225.500 C 338.543 225.115,338.194 224.814,337.913 224.832 C 337.511 224.856,337.508 224.907,337.900 225.065 C 338.390 225.263,338.621 226.400,338.171 226.400 C 337.372 226.400,336.850 225.256,337.430 224.775 C 338.163 224.167,337.536 223.616,336.100 223.606 C 335.144 223.600,334.848 222.609,335.700 222.265 C 335.990 222.148,335.896 222.050,335.476 222.032 C 335.078 222.014,334.856 221.833,334.982 221.629 C 335.108 221.425,334.804 221.128,334.306 220.970 C 333.476 220.706,333.463 220.660,334.147 220.419 C 334.805 220.188,334.680 219.932,333.105 218.288 C 332.120 217.260,331.229 216.505,331.124 216.610 C 331.019 216.714,330.933 216.530,330.933 216.200 C 330.933 215.870,331.083 215.600,331.267 215.600 C 331.934 215.600,331.579 214.847,330.794 214.598 C 330.351 214.457,330.092 214.175,330.218 213.971 C 330.344 213.767,330.205 213.600,329.909 213.600 C 329.613 213.600,329.348 213.285,329.319 212.900 C 329.206 211.401,328.908 210.668,328.202 210.152 C 327.798 209.857,327.433 209.297,327.390 208.907 C 327.256 207.673,326.437 206.000,325.967 206.000 C 325.718 206.000,325.621 205.723,325.750 205.385 C 325.882 205.041,325.736 204.673,325.419 204.552 C 325.093 204.427,324.954 204.063,325.093 203.701 C 325.254 203.283,325.178 203.167,324.868 203.358 C 324.611 203.517,324.400 203.446,324.400 203.200 C 324.400 202.954,324.175 202.867,323.900 203.006 C 323.625 203.145,323.712 203.003,324.094 202.690 C 324.475 202.377,324.695 202.028,324.581 201.915 C 324.468 201.801,324.293 201.279,324.192 200.754 C 324.091 200.229,323.557 199.470,323.005 199.067 C 322.264 198.526,322.061 198.095,322.230 197.421 C 322.385 196.805,322.255 196.430,321.830 196.267 C 321.483 196.134,321.200 195.730,321.200 195.370 C 321.200 194.926,321.412 194.796,321.857 194.966 C 322.404 195.176,322.429 195.117,322.011 194.614 C 321.735 194.281,321.350 194.107,321.155 194.228 C 320.960 194.349,320.800 194.257,320.800 194.024 C 320.800 193.791,321.025 193.589,321.300 193.575 C 321.575 193.561,321.387 193.384,320.882 193.181 C 320.138 192.882,320.041 192.672,320.366 192.064 C 320.870 191.122,320.196 188.450,319.375 188.135 C 318.549 187.818,318.663 187.183,319.500 187.443 C 320.154 187.646,320.154 187.631,319.492 187.206 C 319.102 186.955,318.888 186.582,319.015 186.375 C 319.143 186.169,319.037 186.000,318.781 186.000 C 318.524 186.000,318.418 185.730,318.545 185.400 C 318.686 185.031,318.544 184.800,318.173 184.800 C 317.709 184.800,317.663 184.629,317.974 184.049 C 318.651 182.784,318.335 180.808,317.524 181.241 C 316.662 181.702,316.215 181.051,316.966 180.428 C 317.608 179.895,317.515 178.551,316.847 178.700 C 316.268 178.830,316.265 177.731,316.843 177.373 C 317.132 177.195,316.957 176.803,316.343 176.250 C 315.386 175.388,315.100 173.949,315.764 173.336 C 315.973 173.143,316.018 173.194,315.869 173.455 C 315.726 173.705,315.877 174.132,316.204 174.404 C 317.124 175.167,316.951 174.151,316.000 173.200 C 315.560 172.760,315.286 172.400,315.390 172.400 C 315.495 172.400,315.401 171.928,315.182 171.351 C 314.904 170.622,314.919 170.138,315.231 169.762 C 315.570 169.355,315.523 169.066,315.040 168.583 C 314.276 167.819,314.202 167.434,314.900 167.853 C 315.240 168.057,315.224 167.937,314.851 167.477 C 314.493 167.036,314.458 166.800,314.751 166.800 C 314.998 166.800,315.200 166.519,315.200 166.176 C 315.200 165.833,315.032 165.656,314.828 165.783 C 314.256 166.136,314.002 165.434,314.464 164.781 C 314.796 164.312,314.830 164.339,314.642 164.921 C 314.514 165.317,314.560 165.548,314.744 165.435 C 315.260 165.116,314.961 162.254,314.393 162.064 C 314.072 161.957,313.993 162.097,314.174 162.448 C 314.331 162.752,314.182 162.658,313.842 162.241 C 313.503 161.824,313.332 161.309,313.463 161.098 C 313.600 160.877,313.846 160.944,314.044 161.257 C 314.233 161.556,314.391 161.611,314.394 161.380 C 314.397 161.149,314.175 160.718,313.900 160.421 C 313.500 159.990,313.500 159.939,313.900 160.165 C 314.231 160.352,314.400 160.162,314.400 159.600 C 314.400 159.134,314.220 158.864,314.000 159.000 C 313.780 159.136,313.600 158.982,313.600 158.657 C 313.600 158.332,313.465 157.991,313.300 157.899 C 313.135 157.807,313.225 157.786,313.500 157.853 C 314.258 158.038,314.098 156.897,313.300 156.432 C 312.905 156.202,312.819 156.019,313.103 156.012 C 313.495 156.003,313.503 155.834,313.140 155.253 C 312.871 154.822,312.805 154.188,312.985 153.753 C 313.156 153.339,313.359 152.100,313.435 151.000 C 313.526 149.688,313.460 149.275,313.244 149.800 C 312.975 150.453,312.879 150.306,312.720 149.000 C 312.612 148.120,312.677 147.340,312.862 147.267 C 313.305 147.092,313.302 144.800,312.860 144.800 C 312.672 144.800,312.542 144.305,312.569 143.700 C 312.596 143.095,312.373 142.298,312.072 141.928 C 311.589 141.333,311.622 141.281,312.363 141.474 C 312.843 141.600,313.200 141.503,313.200 141.247 C 313.200 141.001,313.009 140.800,312.776 140.800 C 312.543 140.800,312.464 140.620,312.600 140.400 C 312.736 140.180,312.648 140.000,312.405 140.000 C 312.115 140.000,312.056 139.507,312.235 138.556 C 312.419 137.574,312.344 137.013,312.001 136.801 C 311.724 136.630,311.623 136.286,311.776 136.038 C 311.930 135.790,312.223 135.691,312.428 135.817 C 312.646 135.952,312.800 134.644,312.800 132.647 C 312.800 130.777,312.620 129.136,312.400 129.000 C 312.180 128.864,312.000 128.393,312.000 127.953 C 312.000 127.513,311.857 127.241,311.683 127.349 C 311.509 127.456,311.337 127.154,311.301 126.677 C 311.249 125.990,311.314 125.934,311.612 126.405 C 311.933 126.913,311.989 126.901,311.994 126.324 C 311.997 125.952,311.817 125.534,311.593 125.396 C 311.370 125.258,311.302 124.958,311.443 124.730 C 311.609 124.462,311.822 124.507,312.044 124.857 C 312.277 125.226,312.390 124.987,312.394 124.114 C 312.398 123.187,312.149 122.694,311.501 122.347 C 311.007 122.082,310.790 121.803,311.020 121.727 C 311.250 121.650,311.373 120.915,311.293 120.094 C 311.181 118.935,311.247 118.735,311.586 119.200 C 312.364 120.265,311.572 117.557,310.577 115.746 C 309.758 114.257,309.739 114.111,310.388 114.281 C 310.998 114.440,311.100 114.227,311.054 112.886 C 311.021 111.918,310.829 111.368,310.561 111.471 C 310.296 111.572,310.152 111.193,310.198 110.519 C 310.283 109.276,309.629 108.106,309.219 108.770 C 309.080 108.994,308.764 108.641,308.517 107.986 C 308.270 107.331,308.233 106.897,308.435 107.022 C 308.734 107.206,308.701 106.037,308.384 105.200 C 308.342 105.090,308.343 104.665,308.386 104.256 C 308.431 103.833,308.287 103.623,308.052 103.768 C 307.789 103.930,307.689 103.509,307.776 102.611 C 307.851 101.835,307.731 101.200,307.510 101.200 C 307.288 101.200,307.201 100.840,307.316 100.400 C 307.442 99.918,307.328 99.600,307.030 99.600 C 306.257 99.600,305.321 97.620,305.919 97.250 C 306.278 97.028,306.166 96.465,305.487 95.057 C 304.984 94.014,304.434 93.300,304.265 93.468 C 304.096 93.637,304.071 93.480,304.210 93.119 C 304.515 92.324,303.713 90.683,303.180 91.012 C 302.971 91.142,302.800 91.057,302.800 90.824 C 302.800 90.591,303.000 90.400,303.244 90.400 C 303.489 90.400,303.264 90.026,302.744 89.570 C 302.225 89.113,302.023 88.852,302.295 88.990 C 303.129 89.413,302.391 88.023,301.540 87.568 C 301.119 87.343,300.825 86.853,300.887 86.479 C 300.950 86.099,300.775 85.846,300.489 85.904 C 300.208 85.961,299.858 85.691,299.711 85.304 C 299.565 84.917,299.186 84.338,298.869 84.018 C 298.528 83.673,298.460 83.380,298.704 83.299 C 298.930 83.223,299.024 82.812,298.912 82.385 C 298.800 81.958,298.550 81.708,298.355 81.828 C 298.160 81.949,298.000 81.846,298.000 81.600 C 298.000 81.349,297.781 81.284,297.500 81.453 C 297.113 81.685,297.116 81.611,297.510 81.123 C 297.932 80.602,297.908 80.450,297.369 80.243 C 297.010 80.106,296.814 79.742,296.932 79.434 C 297.050 79.127,296.790 78.553,296.356 78.160 C 295.594 77.470,295.574 77.472,295.813 78.222 C 296.039 78.933,296.022 78.940,295.609 78.297 C 295.360 77.910,295.275 77.403,295.419 77.170 C 295.563 76.937,295.302 76.647,294.840 76.526 C 294.378 76.406,294.000 76.135,294.000 75.925 C 294.000 75.715,293.738 75.281,293.417 74.960 C 293.096 74.639,292.947 74.083,293.085 73.723 C 293.254 73.284,293.181 73.164,292.865 73.360 C 292.598 73.525,292.291 73.381,292.155 73.028 C 292.024 72.685,291.767 72.496,291.586 72.609 C 291.404 72.721,291.130 72.610,290.976 72.362 C 290.823 72.114,290.946 71.753,291.249 71.561 C 291.787 71.220,291.725 71.162,290.700 71.041 C 290.425 71.009,290.250 70.685,290.311 70.321 C 290.371 69.958,290.209 69.529,289.949 69.368 C 289.652 69.185,289.583 69.248,289.762 69.538 C 289.919 69.792,289.857 70.000,289.624 70.000 C 289.391 70.000,289.200 69.662,289.200 69.249 C 289.200 68.836,288.926 68.270,288.591 67.992 C 288.075 67.564,288.020 67.603,288.229 68.243 C 288.424 68.843,288.390 68.880,288.064 68.419 C 287.838 68.100,287.739 67.698,287.845 67.527 C 288.228 66.908,287.148 65.438,286.757 66.046 C 286.477 66.480,286.348 66.410,286.159 65.721 C 286.026 65.238,285.622 64.786,285.260 64.716 C 284.898 64.646,284.601 64.232,284.601 63.795 C 284.600 63.284,284.350 63.020,283.900 63.056 C 283.474 63.089,283.200 62.832,283.200 62.398 C 283.200 61.723,282.184 60.988,281.470 61.146 C 281.289 61.187,281.242 61.056,281.366 60.855 C 281.490 60.655,281.289 60.245,280.919 59.945 C 280.350 59.484,280.297 59.485,280.579 59.952 C 280.809 60.334,280.741 60.445,280.356 60.311 C 280.050 60.206,279.811 59.758,279.825 59.318 C 279.840 58.848,279.592 58.515,279.225 58.513 C 277.846 58.506,277.600 58.367,277.600 57.600 C 277.600 57.160,277.453 56.845,277.273 56.900 C 277.093 56.955,276.300 56.370,275.512 55.600 C 273.271 53.411,272.250 52.552,272.587 53.140 C 272.837 53.576,272.734 53.593,272.048 53.226 C 271.582 52.976,271.200 52.678,271.200 52.562 C 271.200 52.447,271.380 52.464,271.600 52.600 C 272.213 52.979,272.075 52.533,271.358 51.815 C 270.862 51.319,270.588 51.278,270.158 51.635 C 269.711 52.005,269.600 51.933,269.600 51.272 C 269.600 50.649,269.394 50.486,268.763 50.607 C 268.135 50.728,267.987 50.612,268.168 50.140 C 268.339 49.694,268.233 49.579,267.805 49.743 C 267.472 49.871,267.200 49.788,267.200 49.559 C 267.200 48.842,266.006 47.912,265.390 48.149 C 265.029 48.287,264.800 48.138,264.800 47.764 C 264.800 47.428,264.621 47.263,264.403 47.398 C 264.185 47.533,263.690 47.459,263.303 47.234 C 262.801 46.941,262.762 46.821,263.167 46.812 C 264.084 46.792,263.210 46.200,262.264 46.200 C 261.666 46.200,261.436 45.986,261.516 45.506 C 261.597 45.024,261.444 44.885,261.016 45.049 C 260.670 45.182,260.400 45.073,260.400 44.800 C 260.400 44.533,260.132 44.417,259.805 44.543 C 259.477 44.668,259.252 44.575,259.305 44.336 C 259.357 44.096,259.175 43.817,258.900 43.717 C 258.576 43.598,258.487 43.761,258.648 44.180 C 258.864 44.743,258.761 44.765,257.846 44.348 C 257.269 44.085,256.872 43.794,256.965 43.702 C 257.209 43.458,255.677 42.000,255.176 42.000 C 254.943 42.000,254.875 42.198,255.025 42.440 C 255.216 42.749,255.044 42.745,254.448 42.426 C 253.982 42.176,253.600 41.878,253.600 41.762 C 253.600 41.647,253.808 41.681,254.062 41.838 C 254.359 42.022,254.415 41.947,254.217 41.627 C 254.048 41.354,253.583 41.216,253.185 41.320 C 252.687 41.450,252.527 41.336,252.673 40.955 C 252.859 40.469,252.251 40.280,250.970 40.426 C 250.843 40.441,250.417 40.081,250.023 39.626 C 249.629 39.172,249.057 38.803,248.753 38.806 C 248.288 38.811,248.290 38.869,248.761 39.168 C 249.163 39.422,249.021 39.506,248.262 39.462 C 247.678 39.428,247.200 39.265,247.200 39.100 C 247.200 38.935,247.004 38.800,246.764 38.800 C 246.524 38.800,245.971 38.395,245.534 37.900 C 245.097 37.405,244.852 37.223,244.990 37.495 C 245.156 37.822,245.030 37.910,244.621 37.753 C 244.279 37.622,244.000 37.264,244.000 36.957 C 244.000 36.264,243.338 36.224,243.064 36.900 C 242.907 37.285,242.772 37.272,242.471 36.843 C 242.252 36.529,241.727 36.378,241.271 36.497 C 240.649 36.660,240.513 36.557,240.689 36.055 C 240.875 35.522,240.817 35.493,240.379 35.900 C 239.837 36.403,238.838 36.628,239.330 36.137 C 239.785 35.682,238.744 34.800,237.751 34.800 C 237.228 34.800,236.800 34.620,236.800 34.400 C 236.800 33.920,235.911 34.045,235.527 34.579 C 235.378 34.788,235.132 34.468,234.981 33.868 C 234.762 32.996,234.597 32.870,234.154 33.238 C 233.442 33.829,233.366 32.794,234.070 32.090 C 234.732 31.428,234.924 26.324,234.302 25.939 C 234.026 25.769,233.870 25.026,233.939 24.219 C 234.026 23.213,233.877 22.728,233.431 22.556 C 233.084 22.423,232.800 22.010,232.800 21.637 C 232.800 21.265,232.575 20.708,232.300 20.399 C 231.875 19.922,231.904 19.918,232.500 20.368 C 233.092 20.816,233.200 20.804,233.200 20.292 C 233.200 19.959,232.705 19.548,232.100 19.379 C 231.278 19.150,231.177 19.030,231.700 18.907 C 232.448 18.730,232.687 17.600,231.976 17.600 C 231.743 17.600,231.681 17.808,231.838 18.062 C 232.009 18.339,231.949 18.415,231.686 18.253 C 231.446 18.105,231.310 17.667,231.384 17.281 C 231.459 16.894,231.244 16.223,230.906 15.789 C 230.404 15.143,230.336 15.127,230.534 15.700 C 230.956 16.927,230.238 16.480,228.800 14.622 C 228.444 14.161,228.403 13.968,228.700 14.147 C 228.975 14.312,229.200 14.293,229.200 14.104 C 229.200 13.915,228.975 13.518,228.700 13.221 C 228.310 12.801,228.309 12.744,228.695 12.962 C 229.023 13.147,229.113 13.040,228.962 12.646 C 228.837 12.318,228.479 12.148,228.167 12.268 C 227.674 12.457,227.425 12.009,227.540 11.138 C 227.559 10.994,227.310 10.657,226.987 10.389 C 226.664 10.121,226.400 10.005,226.400 10.132 C 226.400 10.258,225.905 9.899,225.300 9.333 C 224.695 8.767,224.245 8.145,224.300 7.952 C 224.355 7.758,223.995 7.586,223.500 7.568 C 223.005 7.551,222.823 7.447,223.096 7.336 C 223.477 7.182,223.461 7.004,223.025 6.568 C 222.339 5.881,221.840 5.818,222.242 6.468 C 222.401 6.726,222.058 6.591,221.478 6.168 C 220.899 5.746,220.417 5.220,220.408 5.000 C 220.382 4.390,217.343 3.064,216.775 3.415 C 216.453 3.614,216.377 3.560,216.562 3.262 C 216.748 2.961,216.506 2.800,215.866 2.800 C 215.327 2.800,214.783 2.533,214.658 2.207 C 214.533 1.880,214.167 1.714,213.846 1.838 C 213.497 1.972,213.072 1.708,212.792 1.185 C 212.406 0.464,212.081 0.347,210.961 0.529 C 210.213 0.650,209.600 0.590,209.600 0.394 C 209.600 0.196,205.335 0.034,200.000 0.030 C 193.752 0.025,190.400 0.164,190.400 0.429 M312.501 127.000 C 312.505 127.880,312.587 128.193,312.683 127.695 C 312.779 127.198,312.775 126.478,312.675 126.095 C 312.575 125.713,312.496 126.120,312.501 127.000 M87.301 127.800 C 87.305 128.680,87.387 128.993,87.483 128.495 C 87.579 127.998,87.575 127.278,87.475 126.895 C 87.375 126.513,87.296 126.920,87.301 127.800 M312.319 134.454 C 312.193 135.255,312.137 135.198,311.952 134.087 C 311.821 133.293,311.879 132.919,312.101 133.141 C 312.303 133.343,312.401 133.933,312.319 134.454 M344.729 234.444 C 344.445 234.619,344.096 234.555,343.937 234.298 C 343.492 233.577,344.007 233.108,344.655 233.645 C 345.116 234.028,345.132 234.195,344.729 234.444 M33.766 279.057 C 33.965 279.575,33.904 279.618,33.472 279.260 C 33.172 279.011,32.826 278.907,32.703 279.030 C 32.581 279.153,32.361 279.061,32.216 278.827 C 32.064 278.580,32.282 278.400,32.734 278.400 C 33.163 278.400,33.628 278.695,33.766 279.057 M33.919 281.244 C 33.830 281.509,33.536 281.398,33.185 280.967 C 32.833 280.533,32.799 280.366,33.100 280.547 C 33.396 280.724,33.613 280.633,33.632 280.324 C 33.656 279.921,33.710 279.915,33.865 280.300 C 33.976 280.575,34.000 281.000,33.919 281.244 " stroke="none" fill="#fcac34" fill-rule="evenodd"></path><path id="path4" d="M185.600 1.667 C 185.600 1.850,185.330 2.000,185.000 2.000 C 184.670 2.000,184.400 2.191,184.400 2.424 C 184.400 2.657,184.222 2.737,184.005 2.603 C 183.772 2.459,183.714 2.633,183.864 3.023 C 184.099 3.635,184.148 3.636,184.484 3.035 C 184.685 2.677,185.018 2.488,185.225 2.615 C 185.431 2.743,185.600 2.657,185.600 2.424 C 185.600 2.191,185.803 2.045,186.050 2.100 C 186.298 2.155,186.572 2.005,186.661 1.767 C 186.750 1.528,186.547 1.333,186.211 1.333 C 185.875 1.333,185.600 1.483,185.600 1.667 M213.120 1.680 C 213.493 2.053,213.707 2.053,214.080 1.680 C 214.453 1.307,214.347 1.200,213.600 1.200 C 212.853 1.200,212.747 1.307,213.120 1.680 M214.800 2.400 C 214.800 2.620,215.070 2.800,215.400 2.800 C 215.730 2.800,216.000 2.620,216.000 2.400 C 216.000 2.180,215.730 2.000,215.400 2.000 C 215.070 2.000,214.800 2.180,214.800 2.400 M182.030 3.364 C 181.671 3.797,181.674 3.998,182.042 4.226 C 182.347 4.415,182.419 4.355,182.238 4.062 C 182.057 3.768,182.261 3.600,182.800 3.600 C 183.266 3.600,183.536 3.420,183.400 3.200 C 183.056 2.644,182.580 2.701,182.030 3.364 M178.083 5.874 C 177.363 7.176,177.455 7.916,178.238 7.133 C 178.590 6.782,178.807 6.158,178.721 5.747 C 178.577 5.058,178.528 5.067,178.083 5.874 M220.433 5.304 C 220.525 5.362,221.031 5.767,221.558 6.204 L 222.516 7.000 222.044 6.100 C 221.784 5.605,221.278 5.200,220.919 5.200 C 220.560 5.200,220.342 5.247,220.433 5.304 M176.196 7.607 C 176.058 7.830,175.777 7.909,175.572 7.783 C 175.368 7.656,175.200 7.743,175.200 7.976 C 175.200 8.589,175.961 8.497,176.657 7.800 C 176.987 7.470,177.075 7.200,176.852 7.200 C 176.629 7.200,176.334 7.383,176.196 7.607 M171.600 12.157 C 171.600 12.537,171.450 12.755,171.267 12.641 C 171.083 12.528,170.933 12.673,170.933 12.963 C 170.933 13.266,171.228 13.413,171.626 13.309 C 172.007 13.209,172.282 12.879,172.238 12.576 C 172.112 11.719,171.600 11.383,171.600 12.157 M169.711 15.076 C 169.041 16.495,169.544 17.130,170.254 15.761 C 170.567 15.158,170.683 14.523,170.512 14.352 C 170.340 14.180,169.980 14.506,169.711 15.076 M228.922 14.784 C 230.398 16.677,230.904 16.860,230.310 15.286 C 230.064 14.633,229.590 14.171,229.167 14.171 C 228.577 14.171,228.532 14.284,228.922 14.784 M168.325 17.498 C 167.407 18.566,167.121 19.605,167.818 19.338 C 168.136 19.216,168.279 18.928,168.137 18.697 C 167.994 18.467,168.207 18.038,168.610 17.743 C 169.012 17.449,169.249 17.115,169.135 17.002 C 169.021 16.888,168.657 17.111,168.325 17.498 M167.200 20.696 C 167.200 21.105,166.984 21.656,166.720 21.920 C 166.429 22.211,166.404 22.400,166.656 22.400 C 167.255 22.400,168.061 20.485,167.585 20.191 C 167.373 20.060,167.200 20.287,167.200 20.696 M232.300 20.421 C 232.575 20.718,232.800 21.284,232.800 21.680 C 232.800 22.076,232.991 22.400,233.224 22.400 C 233.457 22.400,233.519 22.608,233.362 22.862 C 233.185 23.147,233.252 23.215,233.537 23.039 C 234.060 22.716,233.177 20.661,232.303 20.167 C 231.900 19.939,231.900 19.990,232.300 20.421 M165.200 30.133 C 165.200 30.940,165.391 31.600,165.624 31.600 C 165.857 31.600,165.919 31.808,165.762 32.062 C 165.584 32.350,165.652 32.415,165.945 32.234 C 166.202 32.075,166.280 31.732,166.117 31.472 C 165.954 31.213,165.759 30.553,165.684 30.007 C 165.470 28.449,165.200 28.520,165.200 30.133 M234.056 32.002 C 233.452 33.385,233.622 33.937,234.374 33.032 C 234.642 32.708,234.803 32.065,234.731 31.601 C 234.617 30.866,234.530 30.917,234.056 32.002 M155.616 36.981 C 155.392 37.252,155.611 37.420,156.234 37.458 C 156.765 37.489,157.200 37.360,157.200 37.170 C 157.200 36.980,157.515 36.938,157.900 37.076 C 158.310 37.223,158.462 37.177,158.267 36.964 C 157.806 36.461,156.038 36.472,155.616 36.981 M151.933 38.681 C 151.700 38.962,151.362 39.100,151.182 38.989 C 151.002 38.878,150.752 38.954,150.626 39.158 C 150.367 39.577,151.425 39.508,151.855 39.078 C 152.008 38.925,152.453 38.800,152.843 38.800 C 153.233 38.800,153.640 38.659,153.747 38.486 C 154.075 37.955,152.384 38.138,151.933 38.681 M246.000 38.467 C 246.000 38.650,246.270 38.800,246.600 38.800 C 246.930 38.800,247.200 38.935,247.200 39.100 C 247.200 39.265,247.665 39.427,248.232 39.460 L 249.263 39.519 248.349 38.879 C 247.347 38.177,246.000 37.941,246.000 38.467 M148.500 40.144 C 147.385 40.696,147.337 41.200,148.400 41.200 C 148.858 41.200,149.200 40.933,149.200 40.576 C 149.200 40.207,149.388 40.069,149.662 40.238 C 149.948 40.415,150.015 40.348,149.838 40.062 C 149.681 39.808,149.518 39.622,149.476 39.649 C 149.434 39.676,148.995 39.899,148.500 40.144 M144.000 42.467 C 144.000 42.650,143.571 42.800,143.047 42.800 C 142.398 42.800,142.015 43.087,141.847 43.700 C 141.660 44.380,141.516 44.469,141.256 44.066 C 140.977 43.635,140.866 43.651,140.673 44.154 C 140.345 45.008,141.000 45.323,141.600 44.600 C 141.870 44.275,142.250 44.107,142.445 44.228 C 142.640 44.349,142.800 44.237,142.800 43.981 C 142.800 43.724,143.068 43.617,143.395 43.743 C 143.723 43.868,143.948 43.810,143.895 43.614 C 143.843 43.417,144.139 43.004,144.553 42.695 C 145.195 42.216,145.209 42.133,144.653 42.133 C 144.294 42.133,144.000 42.283,144.000 42.467 M256.494 42.959 C 256.875 43.245,257.100 43.567,256.992 43.675 C 256.885 43.782,257.247 44.075,257.798 44.326 C 258.349 44.577,258.794 44.652,258.787 44.491 C 258.759 43.846,257.743 42.925,256.800 42.689 C 255.910 42.467,255.876 42.497,256.494 42.959 M261.406 45.590 C 261.083 46.113,262.004 46.556,262.462 46.098 C 262.718 45.842,262.641 45.624,262.240 45.471 C 261.902 45.341,261.527 45.395,261.406 45.590 M134.442 48.268 C 134.119 48.976,134.113 49.229,134.422 49.126 C 134.663 49.046,134.833 48.812,134.800 48.606 C 134.768 48.400,135.056 48.121,135.441 47.986 C 136.046 47.774,136.056 47.707,135.521 47.502 C 135.109 47.344,134.745 47.603,134.442 48.268 M131.610 49.789 C 131.101 50.332,130.542 50.688,130.369 50.581 C 130.197 50.474,129.954 50.551,129.830 50.752 C 129.502 51.282,130.469 51.541,131.400 51.173 C 131.840 50.999,132.037 50.844,131.838 50.828 C 131.639 50.813,131.803 50.439,132.202 49.998 C 133.265 48.824,132.703 48.626,131.610 49.789 M269.613 51.065 C 269.601 51.884,270.479 52.148,270.988 51.478 C 271.105 51.325,271.083 51.287,270.940 51.394 C 270.796 51.500,270.442 51.275,270.152 50.894 C 269.665 50.252,269.624 50.265,269.613 51.065 M128.671 52.051 C 128.491 52.739,128.553 52.777,129.131 52.336 C 129.499 52.056,129.853 51.798,129.917 51.763 C 129.982 51.728,129.774 51.599,129.457 51.477 C 129.100 51.340,128.799 51.560,128.671 52.051 M271.200 52.653 C 271.200 53.119,272.790 53.540,273.038 53.139 C 273.215 52.852,273.148 52.785,272.862 52.962 C 272.608 53.119,272.400 53.087,272.400 52.890 C 272.400 52.694,272.130 52.533,271.800 52.533 C 271.470 52.533,271.200 52.587,271.200 52.653 M125.761 54.216 C 125.888 55.079,126.276 55.299,126.525 54.650 C 126.649 54.329,126.509 53.974,126.214 53.861 C 125.908 53.743,125.714 53.895,125.761 54.216 M274.769 54.500 C 274.373 55.797,275.004 56.330,275.888 55.445 C 276.060 55.274,275.930 55.193,275.600 55.267 C 275.270 55.340,275.045 55.175,275.100 54.900 C 275.180 54.498,274.881 54.135,274.769 54.500 M122.000 57.624 C 122.000 57.857,121.832 57.944,121.628 57.817 C 121.423 57.691,121.165 57.733,121.055 57.910 C 120.945 58.088,121.203 58.260,121.628 58.292 C 122.060 58.325,122.400 58.097,122.400 57.775 C 122.400 57.459,122.310 57.200,122.200 57.200 C 122.090 57.200,122.000 57.391,122.000 57.624 M279.553 59.285 C 279.928 60.297,280.667 60.683,280.667 59.866 C 280.667 59.560,280.343 59.107,279.948 58.861 C 279.316 58.466,279.269 58.517,279.553 59.285 M116.815 62.379 C 116.507 62.807,116.108 63.067,115.929 62.956 C 115.750 62.845,115.396 63.209,115.143 63.765 C 114.890 64.320,114.502 64.663,114.280 64.526 C 114.058 64.389,113.996 64.471,114.143 64.708 C 114.290 64.945,114.093 65.223,113.705 65.325 C 113.317 65.427,113.495 65.492,114.100 65.468 C 114.705 65.445,115.200 65.283,115.200 65.109 C 115.200 64.935,115.740 64.228,116.400 63.537 C 117.060 62.846,117.600 62.128,117.600 61.941 C 117.600 61.428,117.433 61.522,116.815 62.379 M284.600 64.400 C 284.736 64.620,285.086 64.800,285.377 64.800 C 285.668 64.800,286.030 65.205,286.180 65.700 C 286.378 66.349,286.518 66.441,286.684 66.030 C 286.813 65.709,286.519 65.140,286.012 64.730 C 285.043 63.944,284.196 63.747,284.600 64.400 M111.887 67.005 C 111.203 67.945,111.203 67.974,111.887 67.730 C 112.844 67.389,113.600 66.780,113.600 66.351 C 113.600 65.657,112.586 66.045,111.887 67.005 M290.877 72.030 C 290.955 72.266,291.195 72.474,291.410 72.490 C 291.625 72.507,292.019 72.808,292.287 73.160 C 292.555 73.512,292.780 73.603,292.787 73.362 C 292.801 72.885,291.523 71.600,291.035 71.600 C 290.869 71.600,290.798 71.794,290.877 72.030 M293.055 74.600 C 293.182 74.930,293.446 75.200,293.643 75.200 C 293.839 75.200,294.000 75.470,294.000 75.800 C 294.000 76.130,294.164 76.400,294.365 76.400 C 294.566 76.400,294.527 75.860,294.278 75.200 C 294.028 74.540,293.600 74.000,293.325 74.000 C 293.045 74.000,292.926 74.264,293.055 74.600 M105.459 75.789 C 105.336 76.111,105.388 76.469,105.576 76.585 C 105.763 76.701,106.017 76.532,106.141 76.211 C 106.264 75.889,106.212 75.531,106.024 75.415 C 105.837 75.299,105.583 75.468,105.459 75.789 M101.400 81.200 C 101.264 81.420,101.281 81.600,101.438 81.600 C 101.595 81.600,101.381 81.991,100.962 82.469 C 100.456 83.046,100.401 83.236,100.800 83.034 C 101.130 82.867,100.971 83.080,100.446 83.508 C 99.906 83.948,99.665 84.393,99.892 84.533 C 100.494 84.906,101.502 83.571,101.729 82.100 C 101.935 80.767,101.836 80.495,101.400 81.200 M298.968 82.666 C 299.098 82.922,299.000 83.200,298.749 83.284 C 298.438 83.387,298.480 83.623,298.882 84.025 C 299.206 84.349,299.555 84.865,299.657 85.172 C 299.760 85.479,300.194 85.779,300.622 85.840 C 301.373 85.946,301.374 85.930,300.660 85.401 C 300.253 85.100,300.014 84.701,300.129 84.515 C 300.243 84.330,299.976 83.733,299.534 83.189 C 299.092 82.645,298.837 82.410,298.968 82.666 M96.827 89.950 C 96.296 90.942,96.772 91.302,97.709 90.617 C 98.312 90.176,98.329 90.039,97.832 89.627 C 97.370 89.243,97.171 89.307,96.827 89.950 M95.215 93.382 C 94.949 93.703,94.847 94.153,94.989 94.382 C 95.131 94.612,95.027 94.800,94.757 94.800 C 94.487 94.800,94.382 94.916,94.524 95.057 C 94.840 95.373,95.906 94.523,96.436 93.533 C 96.926 92.617,95.950 92.497,95.215 93.382 M93.709 97.700 C 93.044 98.555,92.034 100.826,92.427 100.583 C 92.632 100.456,92.800 100.533,92.800 100.753 C 92.800 100.973,92.620 101.264,92.400 101.400 C 92.180 101.536,92.011 101.952,92.025 102.324 C 92.043 102.801,92.160 102.728,92.422 102.074 C 92.644 101.522,92.979 101.264,93.255 101.434 C 93.580 101.635,93.640 101.415,93.458 100.689 C 93.299 100.056,93.401 99.453,93.722 99.129 C 94.409 98.434,94.866 97.200,94.436 97.200 C 94.250 97.200,93.923 97.425,93.709 97.700 M305.613 97.700 C 305.629 98.359,306.731 99.802,307.007 99.526 C 307.334 99.199,306.478 97.200,306.010 97.200 C 305.784 97.200,305.606 97.425,305.613 97.700 M307.600 103.590 C 307.600 103.842,307.808 103.918,308.063 103.761 C 308.380 103.565,308.455 103.746,308.301 104.337 C 308.177 104.811,308.252 105.309,308.468 105.442 C 308.700 105.585,308.808 105.228,308.731 104.573 C 308.606 103.512,307.600 102.638,307.600 103.590 M90.628 105.554 C 90.479 105.796,90.520 106.285,90.719 106.641 C 91.024 107.186,91.116 107.196,91.303 106.708 C 91.595 105.947,91.007 104.941,90.628 105.554 M308.644 106.566 C 308.837 107.073,308.789 107.241,308.502 107.063 C 308.197 106.874,308.201 107.149,308.517 107.986 C 308.790 108.710,309.077 108.999,309.248 108.723 C 309.603 108.147,309.352 106.791,308.786 106.229 C 308.476 105.922,308.435 106.017,308.644 106.566 M310.133 110.865 C 310.133 111.178,310.373 111.659,310.667 111.933 C 310.960 112.207,311.200 112.279,311.200 112.092 C 311.200 111.906,310.960 111.425,310.667 111.024 C 310.279 110.494,310.133 110.450,310.133 110.865 M88.994 111.559 C 88.862 111.903,88.934 112.245,89.155 112.318 C 89.375 112.392,89.453 112.755,89.328 113.126 C 89.163 113.618,89.261 113.585,89.692 113.000 C 90.017 112.560,90.279 111.915,90.274 111.567 C 90.264 110.749,89.307 110.743,88.994 111.559 M89.377 114.306 C 88.191 115.131,87.493 120.381,88.566 120.413 C 88.805 120.420,88.670 120.676,88.266 120.982 C 87.845 121.301,87.434 122.275,87.301 123.269 C 87.089 124.858,87.126 124.954,87.745 124.443 C 88.116 124.137,88.335 123.801,88.231 123.698 C 88.127 123.594,88.327 122.798,88.675 121.929 C 89.205 120.604,89.223 120.191,88.788 119.378 C 88.338 118.536,88.370 118.292,89.034 117.535 C 89.456 117.055,89.569 116.798,89.286 116.963 C 89.004 117.129,89.138 116.665,89.585 115.932 C 90.677 114.141,90.590 113.463,89.377 114.306 M310.513 115.546 C 311.412 117.088,311.774 121.590,311.000 121.608 C 310.780 121.614,310.991 121.929,311.469 122.309 C 311.948 122.689,312.418 123.450,312.515 124.000 C 312.641 124.715,312.707 124.569,312.746 123.487 C 312.775 122.655,312.544 121.361,312.231 120.612 C 311.918 119.863,311.762 118.866,311.885 118.396 C 312.204 117.177,311.225 114.500,310.379 114.279 C 309.730 114.109,309.743 114.225,310.513 115.546 M311.443 124.730 C 311.302 124.958,311.370 125.258,311.593 125.396 C 311.817 125.534,311.997 125.952,311.994 126.324 C 311.989 126.901,311.933 126.913,311.612 126.405 C 311.314 125.934,311.249 125.990,311.301 126.677 C 311.337 127.154,311.496 127.464,311.654 127.366 C 311.813 127.268,312.021 127.596,312.117 128.094 C 312.213 128.592,312.313 128.190,312.339 127.200 C 312.390 125.323,311.904 123.984,311.443 124.730 M87.632 127.300 C 87.597 129.820,87.646 129.916,88.451 128.923 C 88.824 128.463,88.840 128.343,88.500 128.547 C 88.147 128.759,88.000 128.512,88.000 127.704 C 88.000 127.075,88.225 126.318,88.500 126.021 C 88.821 125.675,88.834 125.576,88.534 125.744 C 88.278 125.887,87.977 125.779,87.866 125.502 C 87.754 125.226,87.649 126.035,87.632 127.300 M311.952 134.087 C 312.137 135.198,312.193 135.255,312.319 134.454 C 312.401 133.933,312.303 133.343,312.101 133.141 C 311.879 132.919,311.821 133.293,311.952 134.087 M311.776 136.038 C 311.623 136.286,311.724 136.630,312.001 136.801 C 312.344 137.013,312.419 137.574,312.235 138.556 C 312.064 139.467,312.118 140.000,312.382 140.000 C 312.901 140.000,312.943 136.136,312.428 135.817 C 312.223 135.691,311.930 135.790,311.776 136.038 M312.077 141.893 C 312.365 142.239,312.549 142.825,312.486 143.195 C 312.424 143.564,312.613 143.867,312.907 143.867 C 313.771 143.867,313.258 141.708,312.337 141.468 C 311.664 141.292,311.627 141.351,312.077 141.893 M87.023 142.500 C 86.590 143.926,86.514 144.777,86.837 144.577 C 87.037 144.454,87.218 144.588,87.240 144.876 C 87.289 145.524,87.905 143.662,87.960 142.700 C 88.006 141.902,87.253 141.742,87.023 142.500 M313.293 145.600 C 313.293 146.370,313.375 146.685,313.476 146.300 C 313.576 145.915,313.576 145.285,313.476 144.900 C 313.375 144.515,313.293 144.830,313.293 145.600 M87.049 148.615 C 86.652 149.650,86.757 150.298,87.358 150.529 C 87.766 150.685,87.895 150.431,87.836 149.583 C 87.738 148.170,87.386 147.738,87.049 148.615 M312.230 151.551 C 312.096 151.768,312.155 152.048,312.359 152.175 C 312.564 152.301,312.829 152.179,312.947 151.902 C 313.065 151.626,313.068 152.237,312.954 153.259 C 312.819 154.459,312.912 155.222,313.215 155.409 C 313.565 155.625,313.546 155.788,313.143 156.044 C 312.725 156.309,312.718 156.389,313.113 156.394 C 313.395 156.397,313.789 156.805,313.988 157.300 C 314.332 158.158,314.350 158.147,314.375 157.074 C 314.389 156.454,314.212 155.597,313.983 155.168 C 313.753 154.739,313.528 153.731,313.483 152.927 C 313.402 151.505,312.721 150.757,312.230 151.551 M86.032 155.939 C 85.795 156.384,85.618 157.254,85.640 157.874 C 85.673 158.840,85.758 158.749,86.235 157.229 C 86.836 155.314,86.729 154.637,86.032 155.939 M313.797 160.263 C 313.905 160.408,313.818 160.738,313.603 160.996 C 313.345 161.307,313.390 161.708,313.739 162.184 C 314.212 162.831,314.258 162.778,314.206 161.658 C 314.174 160.974,314.024 160.321,313.874 160.207 C 313.723 160.093,313.688 160.118,313.797 160.263 M314.413 164.776 C 314.137 165.292,314.132 165.634,314.399 165.799 C 314.853 166.080,314.832 166.112,314.966 164.900 C 315.089 163.797,314.953 163.766,314.413 164.776 M314.610 167.654 C 314.851 168.903,315.100 168.986,315.100 167.817 C 315.100 167.258,314.953 166.800,314.773 166.800 C 314.593 166.800,314.520 167.184,314.610 167.654 M84.339 170.411 C 84.232 172.142,84.195 172.338,83.922 172.611 C 83.775 172.758,83.763 173.160,83.896 173.505 C 84.067 173.952,83.984 174.037,83.606 173.804 C 83.254 173.586,83.172 173.631,83.362 173.938 C 83.519 174.192,83.722 174.400,83.813 174.400 C 84.127 174.400,85.221 172.000,84.910 171.994 C 84.740 171.991,84.849 171.830,85.153 171.637 C 85.617 171.344,85.601 171.136,85.053 170.355 L 84.400 169.422 84.339 170.411 M315.059 169.904 C 314.755 170.396,315.211 172.000,315.654 172.000 C 315.853 172.000,315.896 171.505,315.751 170.900 C 315.432 169.569,315.344 169.443,315.059 169.904 M315.502 172.666 C 315.779 172.777,315.869 173.078,315.702 173.334 C 315.088 174.281,315.642 176.400,316.505 176.400 C 316.854 176.400,316.525 174.833,316.057 174.269 C 315.721 173.864,315.697 173.587,315.981 173.412 C 316.211 173.269,316.400 173.373,316.400 173.643 C 316.400 173.913,316.494 174.039,316.609 173.924 C 317.017 173.516,316.305 172.400,315.657 172.432 C 315.238 172.452,315.182 172.537,315.502 172.666 M82.978 177.635 C 82.831 177.874,82.910 178.270,83.155 178.515 C 83.482 178.842,83.600 178.726,83.600 178.080 C 83.600 177.114,83.392 176.965,82.978 177.635 M316.692 177.442 C 316.531 177.602,316.400 178.009,316.400 178.347 C 316.400 178.797,316.518 178.842,316.845 178.515 C 317.090 178.270,317.221 177.863,317.137 177.610 C 317.052 177.357,316.852 177.281,316.692 177.442 M82.494 179.651 C 82.628 180.009,82.536 180.504,82.289 180.751 C 82.042 180.998,82.011 181.203,82.220 181.206 C 82.429 181.209,82.332 181.382,82.005 181.588 C 81.534 181.886,81.590 181.951,82.277 181.899 C 82.754 181.863,83.052 181.683,82.938 181.499 C 82.824 181.315,82.929 180.927,83.170 180.636 C 83.499 180.239,83.439 179.967,82.930 179.553 C 82.338 179.072,82.282 179.084,82.494 179.651 M316.830 180.564 C 316.335 181.160,316.517 181.386,317.363 181.226 C 317.563 181.189,317.875 181.392,318.057 181.679 C 318.239 181.965,318.391 182.009,318.394 181.776 C 318.410 180.694,317.382 179.898,316.830 180.564 M81.747 183.514 C 81.889 183.744,81.779 184.034,81.502 184.159 C 81.226 184.284,81.347 184.344,81.772 184.293 C 82.616 184.191,82.748 183.516,81.974 183.258 C 81.707 183.169,81.605 183.284,81.747 183.514 M317.838 184.245 C 317.658 184.714,317.762 184.823,318.222 184.647 C 318.707 184.461,318.794 184.588,318.599 185.203 C 318.454 185.659,318.529 186.000,318.773 186.000 C 319.247 186.000,319.330 185.203,318.957 184.233 C 318.645 183.419,318.153 183.424,317.838 184.245 M318.908 187.228 C 318.876 187.652,319.013 188.000,319.212 188.000 C 319.412 188.000,319.477 188.315,319.357 188.700 C 319.184 189.258,319.240 189.241,319.634 188.621 C 320.004 188.037,320.011 187.804,319.661 187.687 C 319.405 187.602,319.289 187.379,319.404 187.193 C 319.519 187.007,319.467 186.765,319.290 186.655 C 319.112 186.545,318.940 186.803,318.908 187.228 M80.242 187.434 C 80.108 187.783,80.174 188.368,80.387 188.734 C 80.601 189.100,80.796 189.310,80.821 189.200 C 81.299 187.077,80.875 185.784,80.242 187.434 M320.298 190.500 C 319.977 191.358,320.241 192.947,320.731 193.110 C 321.311 193.304,321.357 192.144,320.784 191.790 C 320.555 191.648,320.477 191.188,320.611 190.766 C 320.877 189.928,320.601 189.692,320.298 190.500 M79.372 191.429 C 79.546 192.125,79.489 192.379,79.200 192.200 C 78.908 192.020,78.857 192.287,79.042 193.026 C 79.261 193.898,79.204 194.051,78.758 193.783 C 78.315 193.516,78.295 193.566,78.660 194.023 C 79.138 194.623,78.368 195.834,77.843 195.309 C 77.487 194.953,77.558 195.715,77.937 196.311 C 78.307 196.895,79.226 195.292,79.492 193.600 C 79.579 193.050,79.818 192.429,80.025 192.220 C 80.597 191.641,80.473 190.914,79.756 190.638 C 79.230 190.437,79.159 190.583,79.372 191.429 M321.262 195.421 C 321.338 195.813,321.642 196.214,321.938 196.313 C 322.282 196.428,322.427 196.235,322.338 195.779 C 322.262 195.387,321.958 194.986,321.662 194.887 C 321.318 194.772,321.173 194.965,321.262 195.421 M76.883 198.016 C 76.312 198.929,76.558 199.668,77.333 199.370 C 77.819 199.184,78.078 197.200,77.616 197.200 C 77.493 197.200,77.163 197.567,76.883 198.016 M322.194 197.609 C 321.878 198.121,323.026 199.507,323.431 199.102 C 323.569 198.964,323.412 198.467,323.083 197.996 C 322.670 197.408,322.393 197.287,322.194 197.609 M75.406 202.146 C 74.881 202.530,74.764 202.901,74.997 203.442 C 75.313 204.174,75.330 204.172,75.508 203.400 C 75.610 202.960,75.892 202.475,76.135 202.322 C 76.378 202.169,76.479 201.946,76.359 201.826 C 76.240 201.706,75.810 201.850,75.406 202.146 M74.202 204.761 C 74.408 205.121,74.258 205.514,73.783 205.862 C 73.282 206.229,73.174 206.534,73.450 206.810 C 73.725 207.085,74.032 206.888,74.400 206.200 C 74.852 205.356,74.854 205.100,74.413 204.692 C 73.988 204.298,73.946 204.311,74.202 204.761 M72.400 207.976 C 72.400 208.639,72.984 208.734,73.516 208.158 C 73.944 207.694,73.893 207.600,73.216 207.600 C 72.767 207.600,72.400 207.769,72.400 207.976 M71.300 210.665 C 70.734 210.893,70.612 212.000,71.153 212.000 C 71.348 212.000,71.601 211.640,71.716 211.200 C 71.831 210.760,71.897 210.414,71.863 210.432 C 71.828 210.449,71.575 210.554,71.300 210.665 M329.412 213.181 C 329.269 213.411,329.444 213.600,329.800 213.600 C 330.156 213.600,330.336 213.780,330.200 214.000 C 330.064 214.220,330.143 214.400,330.376 214.400 C 330.976 214.400,330.902 213.782,330.236 213.230 C 329.850 212.909,329.589 212.894,329.412 213.181 M69.378 213.635 C 69.231 213.874,69.286 214.246,69.501 214.461 C 69.757 214.717,69.968 214.566,70.109 214.026 C 70.336 213.158,69.838 212.891,69.378 213.635 M67.944 216.291 C 66.840 218.077,66.674 218.823,67.447 218.527 C 67.759 218.407,67.990 218.104,67.960 217.854 C 67.833 216.800,68.026 216.368,68.500 216.641 C 68.775 216.799,68.868 216.782,68.706 216.604 C 68.545 216.425,68.707 216.064,69.067 215.801 C 69.490 215.491,69.570 215.229,69.295 215.059 C 69.059 214.913,68.454 215.465,67.944 216.291 M330.933 216.182 C 330.933 216.503,331.051 216.692,331.194 216.604 C 331.337 216.515,331.707 216.793,332.015 217.221 C 332.324 217.650,332.729 218.000,332.916 218.000 C 333.102 218.000,332.870 217.460,332.400 216.800 C 331.470 215.495,330.933 215.268,330.933 216.182 M65.600 220.000 C 65.270 220.213,65.155 220.391,65.344 220.394 C 65.534 220.397,65.281 220.730,64.783 221.134 C 64.091 221.693,64.010 221.917,64.438 222.077 C 64.777 222.204,65.351 221.752,65.882 220.944 C 66.775 219.582,66.689 219.296,65.600 220.000 M335.200 223.000 C 335.200 223.371,335.576 223.600,336.187 223.600 C 336.901 223.600,337.111 223.433,336.945 223.000 C 336.818 222.670,336.374 222.400,335.957 222.400 C 335.541 222.400,335.200 222.670,335.200 223.000 M61.888 225.185 C 61.757 225.684,61.896 225.886,62.327 225.823 C 63.166 225.699,63.381 224.955,62.656 224.677 C 62.310 224.544,62.002 224.748,61.888 225.185 M337.306 224.854 C 336.967 225.193,336.990 225.447,337.397 225.854 C 338.104 226.561,338.400 226.545,338.400 225.800 C 338.400 225.470,338.209 225.200,337.976 225.200 C 337.743 225.200,337.664 225.020,337.800 224.800 C 338.131 224.264,337.867 224.293,337.306 224.854 M338.595 227.209 C 338.455 227.435,338.489 227.594,338.670 227.563 C 339.522 227.415,340.021 227.643,339.762 228.062 C 339.585 228.348,339.652 228.415,339.938 228.238 C 340.570 227.847,340.524 227.694,339.624 227.213 C 339.094 226.929,338.768 226.928,338.595 227.209 M59.550 227.800 C 59.523 227.910,59.469 228.225,59.432 228.500 C 59.394 228.775,59.102 228.940,58.782 228.867 C 58.462 228.793,58.326 228.860,58.481 229.014 C 58.635 229.169,58.499 229.558,58.177 229.880 C 57.856 230.201,57.725 230.675,57.887 230.932 C 58.087 231.250,58.226 231.175,58.320 230.700 C 58.446 230.062,58.891 229.823,59.707 229.955 C 59.875 229.982,59.972 229.463,59.921 228.802 C 59.838 227.710,59.680 227.282,59.550 227.800 M341.399 230.001 C 341.235 230.268,341.463 230.544,341.955 230.672 C 342.415 230.793,342.700 231.038,342.589 231.218 C 342.478 231.398,342.570 231.658,342.793 231.796 C 343.518 232.244,343.223 230.945,342.440 230.236 C 341.907 229.754,341.595 229.684,341.399 230.001 M55.246 233.524 C 55.221 233.812,55.016 233.933,54.790 233.794 C 54.565 233.655,54.406 233.689,54.437 233.870 C 54.582 234.701,54.353 235.200,53.827 235.200 C 53.512 235.200,53.139 235.563,52.998 236.006 C 52.857 236.449,52.571 236.706,52.361 236.576 C 52.152 236.447,52.030 236.579,52.090 236.870 C 52.151 237.164,51.932 237.340,51.600 237.267 C 51.270 237.193,51.133 237.267,51.297 237.430 C 51.460 237.593,51.370 237.999,51.097 238.333 C 50.707 238.809,50.822 238.795,51.634 238.267 C 52.202 237.897,52.908 237.146,53.201 236.597 C 53.495 236.049,53.898 235.600,54.096 235.600 C 54.784 235.600,55.658 234.396,55.476 233.699 C 55.375 233.315,55.272 233.236,55.246 233.524 M343.862 233.500 C 343.433 234.194,344.207 234.835,344.828 234.300 C 345.148 234.025,345.334 233.843,345.242 233.897 C 345.149 233.950,344.848 233.806,344.572 233.577 C 344.297 233.348,343.977 233.313,343.862 233.500 M348.000 238.236 C 348.000 238.572,348.192 238.729,348.427 238.583 C 348.680 238.427,348.802 238.603,348.727 239.014 C 348.652 239.422,348.878 239.753,349.274 239.815 C 349.842 239.905,349.880 239.774,349.519 238.983 C 349.008 237.859,348.000 237.364,348.000 238.236 M49.400 240.306 C 48.772 240.767,48.742 241.600,49.353 241.600 C 49.658 241.600,50.001 241.240,50.116 240.800 C 50.333 239.970,50.088 239.801,49.400 240.306 M354.812 246.142 C 354.805 246.330,355.282 247.050,355.872 247.742 C 356.462 248.434,356.822 248.670,356.672 248.267 C 356.522 247.864,356.400 247.359,356.400 247.144 C 356.400 246.929,356.231 246.857,356.025 246.985 C 355.818 247.112,355.464 246.898,355.237 246.508 C 355.010 246.119,354.819 245.954,354.812 246.142 M357.600 249.844 C 357.600 250.065,357.859 250.596,358.175 251.024 C 358.685 251.713,358.738 251.721,358.651 251.096 C 358.541 250.317,357.600 249.195,357.600 249.844 M40.292 252.370 C 40.151 252.910,40.256 253.077,40.645 252.927 C 40.950 252.810,41.200 252.464,41.200 252.157 C 41.200 251.326,40.524 251.484,40.292 252.370 M360.400 254.953 C 360.400 255.258,360.805 255.609,361.300 255.733 C 362.114 255.939,362.134 255.911,361.506 255.441 C 361.125 255.155,360.930 254.804,361.073 254.660 C 361.216 254.517,361.123 254.400,360.867 254.400 C 360.610 254.400,360.400 254.649,360.400 254.953 M362.003 257.685 C 362.555 258.188,363.067 259.127,363.141 259.772 C 363.215 260.417,363.549 261.361,363.882 261.869 C 364.215 262.378,364.384 263.065,364.257 263.397 C 364.115 263.766,364.253 264.000,364.613 264.000 C 364.936 264.000,365.200 263.640,365.200 263.200 C 365.200 262.760,365.020 262.400,364.800 262.400 C 364.580 262.400,364.400 262.076,364.400 261.680 C 364.400 261.284,364.225 260.785,364.011 260.571 C 363.798 260.358,363.566 259.827,363.496 259.391 C 363.306 258.213,362.698 257.374,361.800 257.055 C 361.132 256.817,361.165 256.920,362.003 257.685 M36.800 258.400 C 36.470 258.613,36.356 258.791,36.546 258.794 C 36.736 258.797,36.603 259.241,36.250 259.779 C 35.857 260.379,35.762 260.853,36.004 261.003 C 36.222 261.137,36.400 261.169,36.400 261.072 C 36.400 260.976,36.672 260.246,37.005 259.449 C 37.670 257.858,37.666 257.840,36.800 258.400 M34.348 264.876 C 34.106 265.458,34.241 267.200,34.528 267.200 C 34.729 267.200,34.801 266.849,34.689 266.419 C 34.577 265.990,34.682 265.573,34.923 265.492 C 35.223 265.392,35.210 265.253,34.880 265.050 C 34.616 264.886,34.377 264.808,34.348 264.876 M33.382 268.700 C 33.444 269.085,33.240 270.046,32.930 270.835 C 32.597 271.680,32.437 273.076,32.540 274.235 C 32.636 275.316,32.564 276.386,32.380 276.613 C 32.196 276.841,32.213 277.291,32.417 277.613 C 32.722 278.097,32.789 278.069,32.794 277.457 C 32.798 276.962,33.000 276.791,33.400 276.945 C 34.081 277.206,34.216 276.376,33.594 275.754 C 32.908 275.068,32.810 271.600,33.478 271.600 C 33.791 271.600,33.936 271.420,33.800 271.200 C 33.664 270.980,33.694 270.575,33.866 270.300 C 34.461 269.351,34.451 268.000,33.849 268.000 C 33.523 268.000,33.319 268.305,33.382 268.700 M366.000 268.800 C 366.000 269.240,366.169 269.600,366.375 269.600 C 366.581 269.600,366.723 269.240,366.690 268.800 C 366.657 268.360,366.488 268.000,366.315 268.000 C 366.142 268.000,366.000 268.360,366.000 268.800 M367.139 272.100 C 367.031 272.991,366.928 273.388,366.631 274.069 C 366.470 274.437,366.526 275.088,366.755 275.516 C 366.984 275.944,367.070 276.397,366.946 276.521 C 366.822 276.645,366.853 276.962,367.015 277.225 C 367.229 277.570,367.415 277.517,367.687 277.030 C 367.926 276.603,367.917 276.182,367.661 275.874 C 367.440 275.608,367.348 274.537,367.457 273.495 C 367.566 272.453,367.552 271.600,367.427 271.600 C 367.302 271.600,367.173 271.825,367.139 272.100 M367.600 278.413 C 367.067 278.757,367.067 278.843,367.600 279.187 C 368.215 279.584,368.598 279.180,368.333 278.413 C 368.247 278.163,367.987 278.163,367.600 278.413 M32.400 278.867 C 32.400 279.123,32.518 279.215,32.663 279.070 C 32.808 278.925,33.172 279.011,33.472 279.260 C 33.904 279.618,33.965 279.575,33.766 279.057 C 33.479 278.309,32.400 278.159,32.400 278.867 M31.612 280.487 C 31.602 281.993,31.720 282.329,32.193 282.147 C 32.624 281.982,32.682 281.727,32.407 281.213 C 32.199 280.824,32.128 280.405,32.251 280.283 C 32.373 280.160,32.282 279.732,32.049 279.330 C 31.706 278.740,31.622 278.961,31.612 280.487 M33.632 280.324 C 33.613 280.633,33.396 280.724,33.100 280.547 C 32.799 280.366,32.833 280.533,33.185 280.967 C 33.784 281.704,34.248 281.248,33.865 280.300 C 33.710 279.915,33.656 279.921,33.632 280.324 M367.446 280.624 C 367.130 281.448,367.460 281.900,367.990 281.370 C 368.197 281.163,368.219 280.755,368.039 280.463 C 367.782 280.046,367.655 280.081,367.446 280.624 M32.400 283.013 C 32.400 283.336,32.670 283.600,33.000 283.600 C 33.330 283.600,33.600 283.439,33.600 283.243 C 33.600 283.046,33.330 282.782,33.000 282.655 C 32.635 282.515,32.400 282.655,32.400 283.013 M366.986 284.735 C 367.154 285.030,366.971 285.977,366.578 286.848 C 366.062 287.994,365.987 288.547,366.306 288.866 C 366.624 289.184,366.713 289.098,366.631 288.552 C 366.568 288.139,366.795 287.213,367.134 286.496 C 367.649 285.410,367.663 285.109,367.217 284.696 C 366.789 284.298,366.743 284.306,366.986 284.735 M33.099 286.984 C 33.206 287.543,33.465 288.000,33.674 288.000 C 34.198 288.000,33.908 286.298,33.352 286.115 C 33.070 286.023,32.977 286.343,33.099 286.984 M34.025 289.800 C 34.025 290.020,34.290 290.549,34.613 290.976 C 34.936 291.404,35.200 291.573,35.200 291.353 C 35.200 291.133,34.936 290.604,34.613 290.176 C 34.290 289.749,34.025 289.580,34.025 289.800 M363.200 293.200 C 363.200 293.716,363.403 293.999,363.700 293.900 C 363.975 293.808,364.200 293.493,364.200 293.200 C 364.200 292.907,363.975 292.592,363.700 292.500 C 363.403 292.401,363.200 292.684,363.200 293.200 M361.827 295.015 C 361.177 296.007,361.181 296.019,361.981 295.519 C 362.431 295.238,362.800 294.781,362.800 294.504 C 362.800 293.761,362.569 293.882,361.827 295.015 M38.006 295.519 C 37.999 296.100,39.979 297.975,40.600 297.975 C 40.820 297.975,40.640 297.703,40.200 297.370 C 39.760 297.038,39.400 296.593,39.400 296.383 C 39.400 296.172,39.240 296.015,39.045 296.034 C 38.849 296.053,38.537 295.828,38.351 295.534 C 38.081 295.108,38.011 295.105,38.006 295.519 M359.410 297.568 C 359.274 297.998,358.856 298.429,358.481 298.528 C 357.907 298.679,357.901 298.715,358.438 298.754 C 359.246 298.812,360.601 297.371,360.055 297.034 C 359.836 296.899,359.546 297.139,359.410 297.568 M42.400 299.013 C 42.400 299.336,42.670 299.600,43.000 299.600 C 43.330 299.600,43.600 299.439,43.600 299.243 C 43.600 299.046,43.330 298.782,43.000 298.655 C 42.635 298.515,42.400 298.655,42.400 299.013 M44.596 299.607 C 44.230 300.199,44.577 300.502,45.431 300.335 C 46.056 300.213,46.063 300.149,45.498 299.681 C 45.048 299.308,44.793 299.287,44.596 299.607 M46.790 300.988 C 47.065 301.320,47.435 301.502,47.611 301.393 C 47.787 301.284,48.024 301.381,48.136 301.608 C 48.248 301.835,48.299 301.808,48.249 301.548 C 48.200 301.289,47.738 300.921,47.224 300.731 C 46.419 300.433,46.359 300.469,46.790 300.988 M350.223 301.110 C 349.756 301.577,350.036 301.840,351.000 301.840 C 351.550 301.840,352.000 301.717,352.000 301.567 C 352.000 301.206,350.510 300.823,350.223 301.110 M52.200 302.400 C 52.064 302.620,52.334 302.800,52.800 302.800 C 53.266 302.800,53.536 302.620,53.400 302.400 C 53.264 302.180,52.994 302.000,52.800 302.000 C 52.606 302.000,52.336 302.180,52.200 302.400 M346.551 302.480 C 346.296 302.892,348.444 302.887,349.094 302.474 C 349.387 302.288,349.008 302.160,348.168 302.160 C 347.387 302.160,346.659 302.304,346.551 302.480 " stroke="none" fill="#fcb434" fill-rule="evenodd"></path></g></svg>